<svg width="274" height="72" viewBox="0 0 274 72" fill="none" xmlns="http://www.w3.org/2000/svg">
<path d="M53.2247 18.588C45.1232 9.96878 31.8087 9.78299 23.4861 18.1732C15.1635 26.5634 14.9843 40.3522 23.0858 48.9714L28.4119 43.6023C23.1871 38.0099 23.313 29.0897 28.7009 23.6581C34.0888 18.2264 42.7023 18.3362 47.9596 23.8958L53.2247 18.588Z" fill="#00E0CA"/>
<path d="M17.8443 54.2694C25.9458 62.8885 39.2601 63.0741 47.5826 54.684C55.9052 46.2938 56.0845 32.5051 47.9831 23.8859L42.6575 29.2547C47.8823 34.8471 47.7564 43.7672 42.3685 49.1989C36.9806 54.6306 28.3671 54.5208 23.1098 48.9612L17.8443 54.2694Z" fill="#00E0CA"/>
<path d="M77.2522 44.2281L73.6375 47.73C76.9881 50.7667 80.7596 52.2851 84.952 52.2851C88.0386 52.2524 90.5722 51.5504 92.5529 50.179C94.55 48.8402 95.5651 46.9382 95.5982 44.473C95.5982 42.3669 95.0452 40.6281 93.9393 39.2567C92.7509 37.8526 90.8198 37.0527 88.1459 36.8567L83.8874 36.5384C82.633 36.4078 81.7582 36.1057 81.263 35.6323C80.7184 35.2078 80.4625 34.7098 80.4955 34.1384C80.4955 33.2405 80.8339 32.5058 81.5106 31.9344C82.1543 31.363 83.285 31.0772 84.9025 31.0772C86.322 31.0772 87.5764 31.2813 88.6658 31.6895C89.7717 32.1466 90.8198 32.7262 91.8101 33.4282L95.0039 29.7303C93.7495 28.6528 92.33 27.7957 90.7455 27.1589C89.9202 26.8651 89.0372 26.6365 88.0964 26.4732C87.1555 26.3263 86.0909 26.2528 84.9025 26.2528C82.1626 26.2528 79.9013 26.9059 78.1187 28.212C76.2866 29.5181 75.354 31.4772 75.321 34.0894C75.354 36.2608 76.0638 37.9506 77.4502 39.1588C78.8037 40.3995 80.5616 41.1179 82.7238 41.3138L87.2793 41.7056C88.2367 41.7383 89.0042 41.9424 89.5819 42.3179C90.143 42.6771 90.4236 43.3138 90.4236 44.2281C90.4236 45.2566 89.9532 46.0566 89.0124 46.628C88.0716 47.1994 86.8584 47.4851 85.3729 47.4851C82.0553 47.4851 79.3484 46.3995 77.2522 44.2281Z" fill="white"/>
<path d="M99.3258 51.9912H104.5V36.8567C104.5 35.0772 104.987 33.7221 105.961 32.7915C106.918 31.8446 108.14 31.3711 109.625 31.3711C111.111 31.3711 112.324 31.8446 113.265 32.7915C114.222 33.7221 114.701 35.0772 114.701 36.8567V51.9912H119.875V35.0935C119.793 32.1874 118.877 29.9834 117.127 28.4814C115.361 26.9957 113.413 26.2528 111.284 26.2528C108.528 26.2528 106.299 27.2569 104.599 29.265H104.5V16.2856H99.3258V51.9912Z" fill="white"/>
<path d="M125.187 51.9912H130.362V26.5712H125.187V51.9912ZM125.187 21.4039H130.362V16.2856H125.187V21.4039Z" fill="white"/>
<path d="M135.996 51.9912H141.17V36.8567C141.17 35.0772 141.666 33.7221 142.656 32.7915C143.597 31.8446 144.81 31.3711 146.295 31.3711C147.781 31.3711 149.002 31.8446 149.96 32.7915C150.9 33.7221 151.371 35.0772 151.371 36.8567V51.9912H156.545V36.8567C156.545 35.0772 157.032 33.7221 158.006 32.7915C158.963 31.8446 160.185 31.3711 161.67 31.3711C163.156 31.3711 164.369 31.8446 165.31 32.7915C166.251 33.7221 166.721 35.0772 166.721 36.8567V51.9912H171.896V35.0935C171.83 32.1874 170.922 29.9834 169.172 28.4814C167.406 26.9957 165.458 26.2528 163.329 26.2528C159.946 26.2202 157.247 27.3304 155.233 29.5834C154.342 28.6038 153.36 27.7957 152.287 27.1589C151.198 26.5875 149.762 26.2855 147.979 26.2528C145.206 26.2528 142.97 27.2569 141.269 29.265H141.17V26.5712H135.996V51.9912Z" fill="white"/>
<path d="M177.703 51.9912H182.877V36.8567C182.877 35.0772 183.373 33.7221 184.363 32.7915C185.304 31.8446 186.517 31.3711 188.002 31.3711C189.488 31.3711 190.709 31.8446 191.667 32.7915C192.607 33.7221 193.078 35.0772 193.078 36.8567V51.9912H198.252V36.8567C198.252 35.0772 198.739 33.7221 199.713 32.7915C200.67 31.8446 201.892 31.3711 203.377 31.3711C204.863 31.3711 206.076 31.8446 207.017 32.7915C207.958 33.7221 208.428 35.0772 208.428 36.8567V51.9912H213.603V35.0935C213.537 32.1874 212.629 29.9834 210.879 28.4814C209.113 26.9957 207.165 26.2528 205.036 26.2528C201.653 26.2202 198.954 27.3304 196.94 29.5834C196.049 28.6038 195.067 27.7957 193.994 27.1589C192.905 26.5875 191.469 26.2855 189.686 26.2528C186.913 26.2528 184.677 27.2569 182.976 29.265H182.877V26.5712H177.703V51.9912Z" fill="white"/>
<path d="M239.043 41.2159V37.0037C239.01 33.6568 237.962 31.0283 235.899 29.1181C233.869 27.2406 231.385 26.2855 228.447 26.2528C227.225 26.2528 225.987 26.4732 224.733 26.914C223.462 27.3549 222.315 28.0732 221.292 29.0691C220.285 30.0487 219.459 31.3874 218.816 33.0854C218.172 34.7507 217.85 36.8404 217.85 39.3547C217.85 41.9669 218.222 44.0893 218.964 45.7219C219.641 47.4198 220.524 48.7423 221.613 49.6892C222.175 50.1463 222.777 50.53 223.421 50.8402C224.032 51.1994 224.659 51.4851 225.302 51.6973C226.59 52.0892 227.91 52.2851 229.264 52.2851C232.812 52.3177 235.899 50.9463 238.523 48.1709L234.785 45.0117C233.134 46.6607 231.261 47.4851 229.165 47.4851C227.366 47.4851 225.913 46.9464 224.807 45.8688C223.619 44.8076 223.025 43.2566 223.025 41.2159H239.043ZM223.025 37.0037C223.124 35.0282 223.66 33.5343 224.634 32.5221C225.624 31.5589 226.895 31.0772 228.447 31.0772C229.998 31.0772 231.269 31.5589 232.26 32.5221C233.266 33.5343 233.803 35.0282 233.869 37.0037H223.025Z" fill="white"/>
<path d="M242.944 51.9912H248.119V36.6853C248.152 34.8241 248.696 33.4772 249.753 32.6446C250.694 31.7956 251.824 31.3711 253.145 31.3711C254.317 31.3711 255.447 31.7956 256.537 32.6446L260.3 28.212C258.765 26.9385 256.966 26.2855 254.903 26.2528C252.146 26.2528 249.918 27.2569 248.218 29.265H248.119V26.5712H242.944V51.9912Z" fill="white"/>
</svg>
