<svg width="492" height="570" viewBox="0 0 492 570" fill="none" xmlns="http://www.w3.org/2000/svg">
<g opacity="0.5" filter="url(#filter0_f_5_11797)">
<path fill-rule="evenodd" clip-rule="evenodd" d="M64.6244 424.723C61.8818 437.749 54.9147 447.31 49.0631 446.078C49.0626 446.078 49.062 446.078 49.0615 446.078L45.3327 445.293L45.6492 443.789C42.3454 439.585 41.3064 430.365 43.4337 420.261C45.561 410.157 50.2297 402.139 54.9481 399.624L55.2646 398.12L58.9822 398.903C58.9865 398.904 58.9908 398.905 58.995 398.906C64.8467 400.138 67.3671 411.696 64.6244 424.723Z" fill="#14CABF"/>
<ellipse rx="24.1033" ry="10.8277" transform="matrix(-0.206028 0.978546 0.978546 0.206028 54.0283 422.492)" fill="url(#paint0_radial_5_11797)"/>
<mask id="mask0_5_11797" style="mask-type:alpha" maskUnits="userSpaceOnUse" x="39" y="398" width="24" height="48">
<ellipse rx="24.1033" ry="10.8277" transform="matrix(-0.206028 0.978546 0.978546 0.206028 50.8237 421.817)" fill="url(#paint1_linear_5_11797)"/>
</mask>
<g mask="url(#mask0_5_11797)">
<ellipse rx="24.1033" ry="10.8277" transform="matrix(-0.206028 0.978546 0.978546 0.206028 50.8237 421.817)" fill="url(#paint2_linear_5_11797)"/>
<ellipse rx="24.1033" ry="10.8277" transform="matrix(-0.206028 0.978546 0.978546 0.206028 50.8237 421.817)" fill="url(#paint3_linear_5_11797)"/>
<g filter="url(#filter1_f_5_11797)">
<mask id="path-6-inside-1_5_11797" fill="white">
<path fill-rule="evenodd" clip-rule="evenodd" d="M48.4372 445.287C47.5647 445.535 46.6995 445.581 45.8574 445.404C40.0057 444.172 37.4854 432.613 40.228 419.587C42.9706 406.561 49.9377 396.999 55.7893 398.231C56.6316 398.409 57.4048 398.8 58.1033 399.379C52.9136 400.854 47.4696 409.466 45.1217 420.617C42.7738 431.769 44.2829 441.845 48.4372 445.287Z"/>
</mask>
<path fill-rule="evenodd" clip-rule="evenodd" d="M48.4372 445.287C47.5647 445.535 46.6995 445.581 45.8574 445.404C40.0057 444.172 37.4854 432.613 40.228 419.587C42.9706 406.561 49.9377 396.999 55.7893 398.231C56.6316 398.409 57.4048 398.8 58.1033 399.379C52.9136 400.854 47.4696 409.466 45.1217 420.617C42.7738 431.769 44.2829 441.845 48.4372 445.287Z" fill="url(#paint4_linear_5_11797)"/>
<path d="M48.4372 445.287L49.2134 444.35L50.9936 445.825L48.7697 446.457L48.4372 445.287ZM58.1033 399.379L58.8796 398.442L60.6597 399.917L58.4358 400.549L58.1033 399.379ZM46.1081 444.213C46.7369 444.346 47.4013 444.317 48.1046 444.117L48.7697 446.457C47.7282 446.753 46.6621 446.817 45.6067 446.594L46.1081 444.213ZM41.4185 419.838C40.0742 426.222 40.0343 432.191 41.0086 436.659C42.0097 441.25 43.9436 443.758 46.1081 444.213L45.6067 446.594C41.9195 445.818 39.6674 441.93 38.6311 437.177C37.568 432.302 37.6391 425.978 39.0375 419.336L41.4185 419.838ZM55.5387 399.422C53.3742 398.966 50.5936 400.481 47.8261 404.279C45.1328 407.975 42.7629 413.453 41.4185 419.838L39.0375 419.336C40.4358 412.695 42.9207 406.879 45.8595 402.846C48.7241 398.915 52.3528 396.265 56.04 397.041L55.5387 399.422ZM57.327 400.316C56.7639 399.849 56.1676 399.554 55.5387 399.422L56.04 397.041C57.0956 397.263 58.0457 397.751 58.8796 398.442L57.327 400.316ZM58.4358 400.549C56.282 401.161 53.8315 403.364 51.5821 407.008C49.3639 410.602 47.462 415.407 46.3122 420.868L43.9311 420.367C45.1293 414.676 47.1234 409.599 49.5115 405.73C51.8685 401.912 54.7349 399.071 57.7707 398.209L58.4358 400.549ZM46.3122 420.868C45.1625 426.329 44.9654 431.493 45.5462 435.676C46.1352 439.917 47.4893 442.922 49.2134 444.35L47.6609 446.224C45.2308 444.21 43.7532 440.455 43.1361 436.01C42.5107 431.507 42.733 426.057 43.9311 420.367L46.3122 420.868Z" fill="url(#paint5_radial_5_11797)" mask="url(#path-6-inside-1_5_11797)"/>
</g>
<g style="mix-blend-mode:screen" opacity="0.65" filter="url(#filter2_f_5_11797)">
<rect width="19.284" height="40.4768" transform="matrix(-0.864059 0.503391 0.503391 0.864059 57.0485 395.936)" fill="url(#paint6_linear_5_11797)"/>
<rect width="19.284" height="40.4768" transform="matrix(-0.864059 0.503391 0.503391 0.864059 57.0485 395.936)" fill="url(#paint7_radial_5_11797)"/>
</g>
</g>
</g>
<path fill-rule="evenodd" clip-rule="evenodd" d="M264.993 372.156C233.928 341.315 219.976 305.001 233.83 291.046C233.832 291.045 233.833 291.043 233.834 291.042L233.834 291.042L242.663 282.149L246.248 285.709C263.757 284.098 291.069 297.7 315.164 321.621C339.258 345.542 353.058 372.755 351.573 390.275L355.159 393.834L346.381 402.676C346.363 402.694 346.345 402.713 346.326 402.731C332.472 416.686 296.058 402.997 264.993 372.156Z" fill="#14CABF"/>
<ellipse rx="79.2606" ry="35.6054" transform="matrix(-0.709661 -0.704544 -0.704544 0.709661 290.08 346.887)" fill="url(#paint8_radial_5_11797)"/>
<mask id="mask1_5_11797" style="mask-type:alpha" maskUnits="userSpaceOnUse" x="236" y="277" width="124" height="124">
<ellipse rx="79.2606" ry="35.6054" transform="matrix(-0.709661 -0.704544 -0.704544 0.709661 297.668 339.246)" fill="url(#paint9_linear_5_11797)"/>
</mask>
<g mask="url(#mask1_5_11797)">
<ellipse rx="79.2606" ry="35.6054" transform="matrix(-0.709661 -0.704544 -0.704544 0.709661 297.668 339.246)" fill="url(#paint10_linear_5_11797)"/>
<ellipse rx="79.2606" ry="35.6054" transform="matrix(-0.709661 -0.704544 -0.704544 0.709661 297.668 339.246)" fill="url(#paint11_linear_5_11797)"/>
<g filter="url(#filter3_f_5_11797)">
<mask id="path-14-inside-2_5_11797" fill="white">
<path fill-rule="evenodd" clip-rule="evenodd" d="M237.134 290.733C238.008 287.881 239.426 285.41 241.42 283.402C255.274 269.447 291.688 283.136 322.753 313.977C353.818 344.818 367.77 381.132 353.916 395.087C351.922 397.095 349.461 398.531 346.616 399.426C351.814 382.463 337.762 352.049 311.168 325.646C284.573 299.244 254.059 285.412 237.134 290.733Z"/>
</mask>
<path fill-rule="evenodd" clip-rule="evenodd" d="M237.134 290.733C238.008 287.881 239.426 285.41 241.42 283.402C255.274 269.447 291.688 283.136 322.753 313.977C353.818 344.818 367.77 381.132 353.916 395.087C351.922 397.095 349.461 398.531 346.616 399.426C351.814 382.463 337.762 352.049 311.168 325.646C284.573 299.244 254.059 285.412 237.134 290.733Z" fill="url(#paint12_linear_5_11797)"/>
<path d="M237.134 290.733L238.427 294.847L230.61 297.304L233.011 289.469L237.134 290.733ZM346.616 399.426L347.909 403.539L340.091 405.997L342.493 398.162L346.616 399.426ZM244.48 286.44C243.03 287.9 241.948 289.741 241.257 291.997L233.011 289.469C234.067 286.022 235.821 282.92 238.359 280.364L244.48 286.44ZM319.715 317.037C304.512 301.944 288.142 291.2 274.115 285.927C259.67 280.497 249.464 281.42 244.48 286.44L238.359 280.364C247.23 271.429 262.158 272.219 277.15 277.854C292.56 283.647 309.929 295.169 325.791 310.916L319.715 317.037ZM350.856 392.049C355.84 387.028 356.688 376.816 351.154 362.411C345.78 348.422 334.918 332.13 319.715 317.037L325.791 310.916C341.653 326.664 353.3 343.95 359.205 359.318C364.949 374.268 365.846 389.191 356.976 398.125L350.856 392.049ZM345.322 395.312C347.573 394.604 349.406 393.509 350.856 392.049L356.976 398.125C354.438 400.682 351.349 402.458 347.909 403.539L345.322 395.312ZM342.493 398.162C344.616 391.234 342.951 380.623 336.919 367.926C330.977 355.42 321.131 341.614 308.129 328.707L314.206 322.586C327.798 336.081 338.276 350.684 344.709 364.226C351.052 377.578 353.814 390.654 350.739 400.689L342.493 398.162ZM308.129 328.707C295.128 315.799 281.251 306.053 268.702 300.202C255.963 294.262 245.34 292.673 238.427 294.847L235.841 286.619C245.853 283.471 258.949 286.138 272.347 292.385C285.935 298.72 300.613 309.091 314.206 322.586L308.129 328.707Z" fill="url(#paint13_radial_5_11797)" mask="url(#path-14-inside-2_5_11797)"/>
</g>
<g style="mix-blend-mode:screen" opacity="0.65" filter="url(#filter4_f_5_11797)">
<rect width="63.4128" height="133.103" transform="matrix(0.0467296 -0.998908 -0.998908 -0.0467296 358.003 402.663)" fill="url(#paint14_linear_5_11797)"/>
<rect width="63.4128" height="133.103" transform="matrix(0.0467296 -0.998908 -0.998908 -0.0467296 358.003 402.663)" fill="url(#paint15_radial_5_11797)"/>
</g>
</g>
<g opacity="0.9" filter="url(#filter5_f_5_11797)">
<path fill-rule="evenodd" clip-rule="evenodd" d="M57.0571 505.643C72.686 520.998 79.764 539.137 72.8663 546.158C72.8656 546.158 72.865 546.159 72.8644 546.159L72.8645 546.16L68.4691 550.633L66.6651 548.861C57.9063 549.714 44.2003 542.977 32.0781 531.067C19.9559 519.157 12.9778 505.573 13.6754 496.8L11.8718 495.028L16.2246 490.598C16.2393 490.582 16.2541 490.567 16.2689 490.552C23.1667 483.531 41.4282 490.288 57.0571 505.643Z" fill="#14CABF"/>
<ellipse rx="39.6712" ry="17.8211" transform="matrix(0.71333 0.700828 0.700828 -0.71333 44.566 518.356)" fill="url(#paint16_radial_5_11797)"/>
<mask id="mask2_5_11797" style="mask-type:alpha" maskUnits="userSpaceOnUse" x="9" y="491" width="63" height="62">
<ellipse rx="39.6712" ry="17.8211" transform="matrix(0.71333 0.700828 0.700828 -0.71333 40.7882 522.2)" fill="url(#paint17_linear_5_11797)"/>
</mask>
<g mask="url(#mask2_5_11797)">
<ellipse rx="39.6712" ry="17.8211" transform="matrix(0.71333 0.700828 0.700828 -0.71333 40.7882 522.2)" fill="url(#paint18_linear_5_11797)"/>
<ellipse rx="39.6712" ry="17.8211" transform="matrix(0.71333 0.700828 0.700828 -0.71333 40.7882 522.2)" fill="url(#paint19_linear_5_11797)"/>
<g filter="url(#filter6_f_5_11797)">
<mask id="path-22-inside-3_5_11797" fill="white">
<path fill-rule="evenodd" clip-rule="evenodd" d="M71.2128 546.323C70.7828 547.752 70.0796 548.993 69.087 550.003C62.1892 557.024 43.9277 550.268 28.2988 534.913C12.6699 519.558 5.59186 501.419 12.4896 494.398C13.4824 493.388 14.7105 492.663 16.1323 492.207C13.5746 500.711 20.6875 515.897 34.0673 529.042C47.4468 542.187 62.7557 549.03 71.2128 546.323Z"/>
</mask>
<path fill-rule="evenodd" clip-rule="evenodd" d="M71.2128 546.323C70.7828 547.752 70.0796 548.993 69.087 550.003C62.1892 557.024 43.9277 550.268 28.2988 534.913C12.6699 519.558 5.59186 501.419 12.4896 494.398C13.4824 493.388 14.7105 492.663 16.1323 492.207C13.5746 500.711 20.6875 515.897 34.0673 529.042C47.4468 542.187 62.7557 549.03 71.2128 546.323Z" fill="url(#paint20_linear_5_11797)"/>
<path d="M71.2128 546.323L69.8074 541.933L78.1499 539.262L75.6269 547.651L71.2128 546.323ZM16.1323 492.207L14.7269 487.817L23.0694 485.147L20.5464 493.535L16.1323 492.207ZM65.7989 546.773C66.2128 546.352 66.5605 545.787 66.7986 544.995L75.6269 547.651C75.0051 549.718 73.9464 551.634 72.375 553.234L65.7989 546.773ZM31.5292 531.625C38.9896 538.955 46.926 544.069 53.5665 546.526C60.6548 549.149 64.416 548.181 65.7989 546.773L72.375 553.234C66.8602 558.847 58.0418 558.011 50.3677 555.172C42.2457 552.167 33.237 546.227 25.0683 538.201L31.5292 531.625ZM15.7777 497.628C14.3948 499.036 13.4935 502.814 16.2408 509.855C18.8146 516.451 24.0689 524.295 31.5292 531.625L25.0683 538.201C16.8997 530.176 10.8006 521.273 7.65256 513.206C4.67813 505.583 3.68665 496.781 9.20154 491.168L15.7777 497.628ZM17.5376 496.597C16.7502 496.849 16.1917 497.207 15.7777 497.628L9.20154 491.168C10.773 489.568 12.6708 488.476 14.7269 487.817L17.5376 496.597ZM20.5464 493.535C19.7679 496.123 20.3138 500.731 23.2763 506.884C26.1415 512.835 30.9254 519.493 37.2977 525.754L30.8368 532.33C23.8293 525.445 18.3669 517.938 14.9701 510.884C11.6707 504.031 9.93901 496.795 11.7181 490.88L20.5464 493.535ZM37.2977 525.754C43.6699 532.014 50.4118 536.68 56.412 539.439C62.6161 542.293 67.2331 542.757 69.8074 541.933L72.6181 550.713C66.7354 552.596 59.4694 550.993 52.5599 547.815C45.4465 544.543 37.8442 539.215 30.8368 532.33L37.2977 525.754Z" fill="url(#paint21_radial_5_11797)" mask="url(#path-22-inside-3_5_11797)"/>
</g>
<g style="mix-blend-mode:screen" opacity="0.65" filter="url(#filter7_f_5_11797)">
<rect width="31.7391" height="66.6201" transform="matrix(-0.0415122 0.999138 0.999138 0.0415122 10.4235 490.617)" fill="url(#paint22_linear_5_11797)"/>
<rect width="31.7391" height="66.6201" transform="matrix(-0.0415122 0.999138 0.999138 0.0415122 10.4235 490.617)" fill="url(#paint23_radial_5_11797)"/>
</g>
</g>
</g>
<path fill-rule="evenodd" clip-rule="evenodd" d="M95.5909 109.751C118.866 98.3174 133.57 80.5725 128.433 70.117C128.433 70.1164 128.432 70.1157 128.432 70.115L128.432 70.1148L125.159 63.4523L122.474 64.7718C112.951 60.5531 95.0435 63.0201 76.9904 71.889C58.9372 80.7579 46.0406 93.4236 43.5596 103.539L40.8744 104.859L44.1098 111.444C44.1225 111.471 44.1352 111.497 44.1481 111.523C49.2845 121.979 72.3162 121.185 95.5909 109.751Z" fill="url(#paint24_radial_5_11797)"/>
<path fill-rule="evenodd" clip-rule="evenodd" d="M95.5909 109.751C118.866 98.3174 133.57 80.5725 128.433 70.117C128.433 70.1164 128.432 70.1157 128.432 70.115L128.432 70.1148L125.159 63.4523L122.474 64.7718C112.951 60.5531 95.0435 63.0201 76.9904 71.889C58.9372 80.7579 46.0406 93.4236 43.5596 103.539L40.8744 104.859L44.1098 111.444C44.1225 111.471 44.1352 111.497 44.1481 111.523C49.2845 121.979 72.3162 121.185 95.5909 109.751Z" fill="url(#paint25_radial_5_11797)"/>
<mask id="mask3_5_11797" style="mask-type:alpha" maskUnits="userSpaceOnUse" x="40" y="57" width="87" height="57">
<ellipse cx="83.4764" cy="85.0928" rx="46.9533" ry="21.0923" transform="rotate(-26.1633 83.4764 85.0928)" fill="url(#paint26_linear_5_11797)"/>
</mask>
<g mask="url(#mask3_5_11797)">
<ellipse cx="83.4764" cy="85.0928" rx="46.9533" ry="21.0923" transform="rotate(-26.1633 83.4764 85.0928)" fill="url(#paint27_radial_5_11797)"/>
<g opacity="0.75" filter="url(#filter8_f_5_11797)">
<mask id="path-28-inside-4_5_11797" fill="white">
<path fill-rule="evenodd" clip-rule="evenodd" d="M126.638 69.3138C126.687 67.5477 126.358 65.892 125.619 64.3873C120.483 53.9319 97.4512 54.7252 74.1765 66.1592C50.9019 77.5933 36.1979 95.3382 41.3343 105.794C42.0735 107.298 43.1833 108.57 44.611 109.61C44.9028 99.1046 58.5466 84.691 78.4717 74.9025C98.3969 65.1139 118.144 63.1239 126.638 69.3138Z"/>
</mask>
<path fill-rule="evenodd" clip-rule="evenodd" d="M126.638 69.3138C126.687 67.5477 126.358 65.892 125.619 64.3873C120.483 53.9319 97.4512 54.7252 74.1765 66.1592C50.9019 77.5933 36.1979 95.3382 41.3343 105.794C42.0735 107.298 43.1833 108.57 44.611 109.61C44.9028 99.1046 58.5466 84.691 78.4717 74.9025C98.3969 65.1139 118.144 63.1239 126.638 69.3138Z" fill="url(#paint28_linear_5_11797)"/>
<path d="M126.638 69.3138L125.74 70.5458L128.081 72.2521L128.162 69.3561L126.638 69.3138ZM44.611 109.61L43.7132 110.842L46.0545 112.549L46.135 109.653L44.611 109.61ZM124.251 65.0595C124.87 66.3191 125.157 67.7255 125.114 69.2714L128.162 69.3561C128.217 67.3698 127.847 65.4649 126.988 63.7151L124.251 65.0595ZM74.8488 67.5276C86.3387 61.8829 97.704 58.9 106.752 58.5883C115.958 58.2712 122.113 60.7069 124.251 65.0595L126.988 63.7151C123.99 57.6123 116.06 55.2169 106.647 55.5411C97.0769 55.8708 85.289 59.0015 73.5043 64.7909L74.8488 67.5276ZM42.7026 105.121C40.5643 100.769 42.3978 94.409 48.2752 87.3161C54.0518 80.3448 63.3588 73.1722 74.8488 67.5276L73.5043 64.7909C61.7196 70.5803 52.0374 77.9971 45.9274 85.3707C39.9182 92.6226 36.9679 100.363 39.966 106.466L42.7026 105.121ZM45.5089 108.378C44.2592 107.468 43.3214 106.381 42.7026 105.121L39.966 106.466C40.8256 108.216 42.1074 109.672 43.7132 110.842L45.5089 108.378ZM46.135 109.653C46.2649 104.974 49.426 99.0952 55.2748 93.0473C61.072 87.0528 69.3135 81.1001 79.1439 76.2708L77.7995 73.5342C67.7048 78.4934 59.1619 84.6418 53.083 90.9277C47.0557 97.1602 43.2489 103.741 43.0871 109.568L46.135 109.653ZM79.1439 76.2708C88.9744 71.4415 98.7229 68.5562 107.011 67.6313C115.372 66.6982 121.957 67.7892 125.74 70.5458L127.536 68.0817C122.825 64.6484 115.289 63.6395 106.672 64.6011C97.9819 65.5709 87.8943 68.575 77.7995 73.5342L79.1439 76.2708Z" fill="url(#paint29_radial_5_11797)" mask="url(#path-28-inside-4_5_11797)"/>
</g>
<g style="mix-blend-mode:screen" opacity="0.5" filter="url(#filter9_f_5_11797)">
<rect x="46.8622" y="122.066" width="34.3748" height="72.1524" transform="rotate(-89.049 46.8622 122.066)" fill="url(#paint30_linear_5_11797)"/>
<rect x="46.8622" y="122.066" width="34.3748" height="72.1524" transform="rotate(-89.049 46.8622 122.066)" fill="url(#paint31_radial_5_11797)"/>
</g>
</g>
<path fill-rule="evenodd" clip-rule="evenodd" d="M150.925 479.239C163.891 456.782 166.224 433.855 156.136 428.03C156.135 428.03 156.134 428.03 156.134 428.029L156.134 428.029L149.705 424.317L148.209 426.909C137.95 428.708 124.45 440.728 114.393 458.147C104.336 475.566 100.676 493.268 104.248 503.052L102.752 505.643L109.107 509.312C109.132 509.327 109.157 509.341 109.182 509.356C119.271 515.18 137.96 501.697 150.925 479.239Z" fill="url(#paint32_radial_5_11797)"/>
<path fill-rule="evenodd" clip-rule="evenodd" d="M150.925 479.239C163.891 456.782 166.224 433.855 156.136 428.03C156.135 428.03 156.134 428.03 156.134 428.029L156.134 428.029L149.705 424.317L148.209 426.909C137.95 428.708 124.45 440.728 114.393 458.147C104.336 475.566 100.676 493.268 104.248 503.052L102.752 505.643L109.107 509.312C109.132 509.327 109.157 509.341 109.182 509.356C119.271 515.18 137.96 501.697 150.925 479.239Z" fill="url(#paint33_radial_5_11797)"/>
<mask id="mask4_5_11797" style="mask-type:alpha" maskUnits="userSpaceOnUse" x="97" y="423" width="60" height="85">
<ellipse cx="127.132" cy="465.503" rx="46.9533" ry="21.0923" transform="rotate(-60 127.132 465.503)" fill="url(#paint34_linear_5_11797)"/>
</mask>
<g mask="url(#mask4_5_11797)">
<ellipse cx="127.132" cy="465.503" rx="46.9533" ry="21.0923" transform="rotate(-60 127.132 465.503)" fill="url(#paint35_radial_5_11797)"/>
<g opacity="0.75" filter="url(#filter10_f_5_11797)">
<mask id="path-34-inside-5_5_11797" fill="white">
<path fill-rule="evenodd" clip-rule="evenodd" d="M154.197 428.363C153.254 426.869 152.06 425.676 150.608 424.838C140.52 419.014 121.831 432.497 108.865 454.955C95.899 477.412 93.5664 500.339 103.655 506.163C105.106 507.002 106.736 507.44 108.502 507.509C102.894 498.62 106.201 479.051 117.301 459.825C128.401 440.6 143.695 427.951 154.197 428.363Z"/>
</mask>
<path fill-rule="evenodd" clip-rule="evenodd" d="M154.197 428.363C153.254 426.869 152.06 425.676 150.608 424.838C140.52 419.014 121.831 432.497 108.865 454.955C95.899 477.412 93.5664 500.339 103.655 506.163C105.106 507.002 106.736 507.44 108.502 507.509C102.894 498.62 106.201 479.051 117.301 459.825C128.401 440.6 143.695 427.951 154.197 428.363Z" fill="url(#paint36_linear_5_11797)"/>
<path d="M154.197 428.363L154.137 429.886L157.032 430L155.486 427.55L154.197 428.363ZM108.502 507.509L108.442 509.033L111.337 509.146L109.791 506.696L108.502 507.509ZM149.846 426.158C151.061 426.86 152.083 427.868 152.908 429.176L155.486 427.55C154.426 425.869 153.059 424.493 151.37 423.518L149.846 426.158ZM110.185 455.717C116.586 444.63 124.365 435.824 131.707 430.527C139.178 425.137 145.646 423.734 149.846 426.158L151.37 423.518C145.482 420.118 137.561 422.544 129.923 428.054C122.158 433.657 114.11 442.821 107.545 454.192L110.185 455.717ZM104.417 504.843C100.217 502.418 98.1987 496.115 99.1311 486.951C100.048 477.944 103.784 466.803 110.185 455.717L107.545 454.192C100.98 465.563 97.0671 477.115 96.0978 486.642C95.1445 496.012 97.0039 504.084 102.892 507.484L104.417 504.843ZM108.561 505.986C107.016 505.925 105.632 505.545 104.417 504.843L102.892 507.484C104.581 508.458 106.457 508.955 108.442 509.033L108.561 505.986ZM109.791 506.696C107.294 502.737 106.646 496.094 108.137 487.814C109.614 479.606 113.145 470.073 118.621 460.588L115.981 459.063C110.357 468.803 106.685 478.667 105.136 487.273C103.6 495.806 104.102 503.392 107.212 508.323L109.791 506.696ZM118.621 460.588C124.098 451.102 130.588 443.277 136.957 437.894C143.383 432.463 149.46 429.703 154.137 429.886L154.257 426.84C148.432 426.611 141.611 429.969 134.989 435.566C128.311 441.21 121.604 449.323 115.981 459.063L118.621 460.588Z" fill="url(#paint37_radial_5_11797)" mask="url(#path-34-inside-5_5_11797)"/>
</g>
<g style="mix-blend-mode:screen" opacity="0.5" filter="url(#filter11_f_5_11797)">
<rect x="117.307" y="516.602" width="34.3748" height="72.1524" transform="rotate(-122.886 117.307 516.602)" fill="url(#paint38_linear_5_11797)"/>
<rect x="117.307" y="516.602" width="34.3748" height="72.1524" transform="rotate(-122.886 117.307 516.602)" fill="url(#paint39_radial_5_11797)"/>
</g>
</g>
<g opacity="0.56" filter="url(#filter12_f_5_11797)">
<path fill-rule="evenodd" clip-rule="evenodd" d="M355.695 513.275C367.283 528.974 370.96 545.921 363.908 551.126C363.908 551.127 363.907 551.127 363.907 551.127L363.907 551.128L359.413 554.445L358.076 552.633C350.253 552.153 339.145 544.304 330.157 532.127C321.168 519.95 316.939 507.022 318.786 499.405L317.449 497.594L321.878 494.325C321.9 494.308 321.922 494.292 321.944 494.276C328.996 489.07 344.107 497.577 355.695 513.275Z" fill="url(#paint40_radial_5_11797)"/>
<path fill-rule="evenodd" clip-rule="evenodd" d="M355.695 513.275C367.283 528.974 370.96 545.921 363.908 551.126C363.908 551.127 363.907 551.127 363.907 551.127L363.907 551.128L359.413 554.445L358.076 552.633C350.253 552.153 339.145 544.304 330.157 532.127C321.168 519.95 316.939 507.022 318.786 499.405L317.449 497.594L321.878 494.325C321.9 494.308 321.922 494.292 321.944 494.276C328.996 489.07 344.107 497.577 355.695 513.275Z" fill="url(#paint41_radial_5_11797)"/>
<mask id="mask5_5_11797" style="mask-type:alpha" maskUnits="userSpaceOnUse" x="314" y="495" width="50" height="61">
<ellipse rx="35.3305" ry="15.8711" transform="matrix(0.593883 0.804551 0.804551 -0.593883 339.063 525.552)" fill="url(#paint42_linear_5_11797)"/>
</mask>
<g mask="url(#mask5_5_11797)">
<ellipse rx="35.3305" ry="15.8711" transform="matrix(0.593883 0.804551 0.804551 -0.593883 339.063 525.552)" fill="url(#paint43_linear_5_11797)"/>
<g opacity="0.5" filter="url(#filter13_f_5_11797)">
<mask id="path-40-inside-6_5_11797" fill="white">
<path fill-rule="evenodd" clip-rule="evenodd" d="M362.431 551.041C361.852 552.238 361.06 553.23 360.045 553.979C352.992 559.185 337.881 550.678 326.293 534.98C314.705 519.281 311.028 502.334 318.08 497.129C319.095 496.38 320.277 495.914 321.591 495.714C318.147 502.833 322.27 517.187 332.19 530.626C342.111 544.066 354.614 552.234 362.431 551.041Z"/>
</mask>
<path fill-rule="evenodd" clip-rule="evenodd" d="M362.431 551.041C361.852 552.238 361.06 553.23 360.045 553.979C352.992 559.185 337.881 550.678 326.293 534.98C314.705 519.281 311.028 502.334 318.08 497.129C319.095 496.38 320.277 495.914 321.591 495.714C318.147 502.833 322.27 517.187 332.19 530.626C342.111 544.066 354.614 552.234 362.431 551.041Z" fill="url(#paint44_linear_5_11797)"/>
<path d="M362.431 551.041L362.27 549.983L364.279 549.677L363.394 551.507L362.431 551.041ZM321.591 495.714L321.429 494.656L323.439 494.35L322.554 496.18L321.591 495.714ZM359.409 553.118C360.27 552.483 360.957 551.633 361.468 550.575L363.394 551.507C362.748 552.843 361.849 553.977 360.68 554.84L359.409 553.118ZM327.154 534.344C332.88 542.101 339.447 548.038 345.395 551.386C351.439 554.789 356.434 555.315 359.409 553.118L360.68 554.84C356.603 557.849 350.516 556.724 344.345 553.251C338.078 549.723 331.295 543.557 325.433 535.615L327.154 534.344ZM318.716 497.989C315.74 500.186 314.771 505.114 316.242 511.892C317.69 518.563 321.428 526.588 327.154 534.344L325.433 535.615C319.57 527.673 315.676 519.375 314.151 512.346C312.65 505.426 313.368 499.277 317.445 496.268L318.716 497.989ZM321.752 496.771C320.591 496.949 319.576 497.354 318.716 497.989L317.445 496.268C318.614 495.405 319.963 494.88 321.429 494.656L321.752 496.771ZM322.554 496.18C321.008 499.376 321.09 504.422 322.904 510.494C324.704 516.516 328.152 523.354 333.051 529.991L331.33 531.262C326.308 524.459 322.735 517.401 320.854 511.106C318.988 504.862 318.731 499.17 320.628 495.248L322.554 496.18ZM333.051 529.991C337.95 536.628 343.469 541.938 348.694 545.432C353.962 548.955 358.759 550.519 362.27 549.983L362.593 552.098C358.285 552.756 352.923 550.833 347.505 547.21C342.044 543.558 336.351 538.065 331.33 531.262L333.051 529.991Z" fill="url(#paint45_radial_5_11797)" mask="url(#path-40-inside-6_5_11797)"/>
</g>
<g style="mix-blend-mode:screen" opacity="0.65" filter="url(#filter14_f_5_11797)">
<rect width="28.2663" height="59.3308" transform="matrix(-0.198558 0.980089 0.980089 0.198558 316.793 493.513)" fill="url(#paint46_linear_5_11797)"/>
<rect width="28.2663" height="59.3308" transform="matrix(-0.198558 0.980089 0.980089 0.198558 316.793 493.513)" fill="url(#paint47_radial_5_11797)"/>
</g>
</g>
</g>
<g opacity="0.5" filter="url(#filter15_f_5_11797)">
<path fill-rule="evenodd" clip-rule="evenodd" d="M94.3948 166.629C114.06 169.186 129.07 178.42 127.921 187.254C127.921 187.254 127.921 187.255 127.921 187.256L127.189 192.885L124.92 192.59C119.062 197.986 105.489 200.602 90.2356 198.619C74.9826 196.636 62.5299 190.636 58.2461 183.921L55.977 183.626L56.7062 178.018C56.7072 178.01 56.7081 178.003 56.7091 177.995C57.8577 169.161 74.7301 164.073 94.3948 166.629Z" fill="url(#paint48_radial_5_11797)"/>
<path fill-rule="evenodd" clip-rule="evenodd" d="M94.3948 166.629C114.06 169.186 129.07 178.42 127.921 187.254C127.921 187.254 127.921 187.255 127.921 187.256L127.189 192.885L124.92 192.59C119.062 197.986 105.489 200.602 90.2356 198.619C74.9826 196.636 62.5299 190.636 58.2461 183.921L55.977 183.626L56.7062 178.018C56.7072 178.01 56.7081 178.003 56.7091 177.995C57.8577 169.161 74.7301 164.073 94.3948 166.629Z" fill="url(#paint49_radial_5_11797)"/>
<mask id="mask6_5_11797" style="mask-type:alpha" maskUnits="userSpaceOnUse" x="56" y="170" width="72" height="35">
<ellipse rx="35.9058" ry="16.1296" transform="matrix(0.991653 0.128932 0.128932 -0.991653 91.6857 187.463)" fill="url(#paint50_linear_5_11797)"/>
</mask>
<g mask="url(#mask6_5_11797)">
<ellipse rx="35.9058" ry="16.1296" transform="matrix(0.991653 0.128932 0.128932 -0.991653 91.6857 187.463)" fill="url(#paint51_linear_5_11797)"/>
<g opacity="0.5" filter="url(#filter16_f_5_11797)">
<mask id="path-46-inside-7_5_11797" fill="white">
<path fill-rule="evenodd" clip-rule="evenodd" d="M126.818 188.276C127.288 189.543 127.457 190.823 127.292 192.094C126.144 200.928 109.271 206.016 89.6064 203.46C69.9417 200.903 54.9314 191.669 56.08 182.835C56.2452 181.564 56.736 180.371 57.5137 179.267C60.3088 186.802 73.732 193.884 90.5659 196.072C107.401 198.261 122.19 194.847 126.818 188.276Z"/>
</mask>
<path fill-rule="evenodd" clip-rule="evenodd" d="M126.818 188.276C127.288 189.543 127.457 190.823 127.292 192.094C126.144 200.928 109.271 206.016 89.6064 203.46C69.9417 200.903 54.9314 191.669 56.08 182.835C56.2452 181.564 56.736 180.371 57.5137 179.267C60.3088 186.802 73.732 193.884 90.5659 196.072C107.401 198.261 122.19 194.847 126.818 188.276Z" fill="url(#paint52_linear_5_11797)"/>
<path d="M126.818 188.276L125.865 187.604L127.14 185.793L127.911 187.87L126.818 188.276ZM57.5137 179.267L56.5605 178.595L57.8362 176.784L58.6067 178.861L57.5137 179.267ZM126.136 191.944C126.274 190.879 126.136 189.79 125.725 188.681L127.911 187.87C128.44 189.295 128.64 190.766 128.448 192.245L126.136 191.944ZM89.7567 202.304C99.4646 203.566 108.428 202.931 115.056 200.932C121.8 198.898 125.658 195.621 126.136 191.944L128.448 192.245C127.778 197.401 122.625 201.085 115.729 203.165C108.718 205.279 99.413 205.91 89.4561 204.616L89.7567 202.304ZM57.2361 182.986C56.7579 186.663 59.6493 190.818 65.6491 194.508C71.546 198.136 80.0489 201.041 89.7567 202.304L89.4561 204.616C79.4993 203.321 70.6646 200.331 64.4274 196.494C58.293 192.721 54.2535 187.841 54.9239 182.685L57.2361 182.986ZM58.4668 179.938C57.7861 180.905 57.3744 181.922 57.2361 182.986L54.9239 182.685C55.1161 181.207 55.6858 179.837 56.5605 178.595L58.4668 179.938ZM58.6067 178.861C59.8515 182.217 63.5861 185.697 69.3082 188.638C74.9798 191.553 82.4109 193.837 90.7162 194.916L90.4156 197.229C81.887 196.12 74.1895 193.768 68.2423 190.711C62.3456 187.681 57.971 183.852 56.4206 179.672L58.6067 178.861ZM90.7162 194.916C99.0223 195.996 106.791 195.689 113.02 194.32C119.304 192.94 123.804 190.531 125.865 187.604L127.771 188.947C125.204 192.592 119.996 195.175 113.52 196.598C106.988 198.032 98.945 198.338 90.4156 197.229L90.7162 194.916Z" fill="url(#paint53_radial_5_11797)" mask="url(#path-46-inside-7_5_11797)"/>
</g>
<g style="mix-blend-mode:screen" opacity="0.65" filter="url(#filter17_f_5_11797)">
<rect width="28.7266" height="60.2968" transform="matrix(0.569372 0.82208 0.82208 -0.569372 52.525 181.234)" fill="url(#paint54_linear_5_11797)"/>
<rect width="28.7266" height="60.2968" transform="matrix(0.569372 0.82208 0.82208 -0.569372 52.525 181.234)" fill="url(#paint55_radial_5_11797)"/>
</g>
</g>
</g>
<g opacity="0.9" filter="url(#filter18_f_5_11797)">
<path fill-rule="evenodd" clip-rule="evenodd" d="M426.157 99.4201C445.574 94.2174 463.208 97.0707 465.546 105.793C465.55 105.809 465.554 105.826 465.559 105.843L467.035 111.353L464.795 111.953C461.39 119.274 449.681 126.971 434.621 131.006C419.56 135.042 405.571 134.23 398.962 129.593L396.722 130.193L395.232 124.635L395.233 124.635C395.232 124.635 395.232 124.634 395.232 124.633C392.895 115.911 406.741 104.623 426.157 99.4201Z" fill="url(#paint56_radial_5_11797)"/>
<path fill-rule="evenodd" clip-rule="evenodd" d="M426.157 99.4201C445.574 94.2174 463.208 97.0707 465.546 105.793C465.55 105.809 465.554 105.826 465.559 105.843L467.035 111.353L464.795 111.953C461.39 119.274 449.681 126.971 434.621 131.006C419.56 135.042 405.571 134.23 398.962 129.593L396.722 130.193L395.232 124.635L395.233 124.635C395.232 124.635 395.232 124.634 395.232 124.633C392.895 115.911 406.741 104.623 426.157 99.4201Z" fill="url(#paint57_radial_5_11797)"/>
<mask id="mask7_5_11797" style="mask-type:alpha" maskUnits="userSpaceOnUse" x="396" y="101" width="72" height="38">
<ellipse rx="36.3969" ry="16.3502" transform="matrix(0.965926 -0.258819 -0.258819 -0.965926 431.669 119.991)" fill="url(#paint58_linear_5_11797)"/>
</mask>
<g mask="url(#mask7_5_11797)">
<ellipse rx="36.3969" ry="16.3502" transform="matrix(0.965926 -0.258819 -0.258819 -0.965926 431.669 119.991)" fill="url(#paint59_linear_5_11797)"/>
<g opacity="0.5" filter="url(#filter19_f_5_11797)">
<mask id="path-52-inside-8_5_11797" fill="white">
<path fill-rule="evenodd" clip-rule="evenodd" d="M464.907 107.176C465.838 108.182 466.491 109.316 466.827 110.572C469.165 119.294 455.319 130.583 435.902 135.785C416.486 140.988 398.851 138.135 396.514 129.412C396.178 128.157 396.176 126.849 396.479 125.514C402.01 131.495 417.326 132.945 433.947 128.491C450.57 124.037 463.11 115.123 464.907 107.176Z"/>
</mask>
<path fill-rule="evenodd" clip-rule="evenodd" d="M464.907 107.176C465.838 108.182 466.491 109.316 466.827 110.572C469.165 119.294 455.319 130.583 435.902 135.785C416.486 140.988 398.851 138.135 396.514 129.412C396.178 128.157 396.176 126.849 396.479 125.514C402.01 131.495 417.326 132.945 433.947 128.491C450.57 124.037 463.11 115.123 464.907 107.176Z" fill="url(#paint60_linear_5_11797)"/>
<path d="M464.907 107.176L463.755 106.916L464.25 104.725L465.775 106.374L464.907 107.176ZM396.479 125.514L395.326 125.253L395.821 123.063L397.346 124.712L396.479 125.514ZM465.686 110.878C465.404 109.827 464.854 108.859 464.04 107.979L465.775 106.374C466.821 107.505 467.578 108.806 467.969 110.266L465.686 110.878ZM435.597 134.644C445.182 132.075 453.336 128.017 458.776 123.582C464.31 119.07 466.659 114.509 465.686 110.878L467.969 110.266C469.333 115.357 465.928 120.801 460.269 125.414C454.516 130.105 446.04 134.292 436.208 136.927L435.597 134.644ZM397.655 129.106C398.628 132.738 402.943 135.514 409.992 136.654C416.92 137.775 426.011 137.212 435.597 134.644L436.208 136.927C426.377 139.561 416.943 140.173 409.615 138.987C402.408 137.821 396.737 134.809 395.372 129.718L397.655 129.106ZM397.631 125.775C397.367 126.944 397.374 128.056 397.655 129.106L395.372 129.718C394.981 128.259 394.986 126.755 395.326 125.253L397.631 125.775ZM397.346 124.712C399.81 127.376 404.654 129.193 411.153 129.738C417.594 130.279 425.441 129.547 433.641 127.35L434.253 129.633C425.832 131.889 417.71 132.66 410.955 132.094C404.258 131.532 398.679 129.634 395.611 126.316L397.346 124.712ZM433.641 127.35C441.842 125.152 449.004 121.862 454.312 118.173C459.668 114.451 462.954 110.454 463.755 106.916L466.06 107.437C465.063 111.845 461.18 116.278 455.661 120.114C450.095 123.982 442.675 127.376 434.253 129.633L433.641 127.35Z" fill="url(#paint61_radial_5_11797)" mask="url(#path-52-inside-8_5_11797)"/>
</g>
<g style="mix-blend-mode:screen" opacity="0.65" filter="url(#filter20_f_5_11797)">
<rect width="29.1196" height="61.1216" transform="matrix(0.839756 0.542965 0.542965 -0.839756 392.562 129.286)" fill="url(#paint62_linear_5_11797)"/>
<rect width="29.1196" height="61.1216" transform="matrix(0.839756 0.542965 0.542965 -0.839756 392.562 129.286)" fill="url(#paint63_radial_5_11797)"/>
</g>
</g>
</g>
<path fill-rule="evenodd" clip-rule="evenodd" d="M261.586 298.097C214.875 320.526 168.84 321.698 158.764 300.715C158.763 300.713 158.763 300.712 158.762 300.71L158.761 300.711L152.341 287.34L157.731 284.751C162.87 264.583 188.867 239.506 225.099 222.109C261.331 204.711 297.156 200.103 316.108 208.704L321.497 206.116L327.837 219.318C327.865 219.376 327.893 219.433 327.921 219.491C337.996 240.475 308.297 275.668 261.586 298.097Z" fill="url(#paint64_radial_5_11797)"/>
<path fill-rule="evenodd" clip-rule="evenodd" d="M261.586 298.097C214.875 320.526 168.84 321.698 158.764 300.715C158.763 300.713 158.763 300.712 158.762 300.71L158.761 300.711L152.341 287.34L157.731 284.751C162.87 264.583 188.867 239.506 225.099 222.109C261.331 204.711 297.156 200.103 316.108 208.704L321.497 206.116L327.837 219.318C327.865 219.376 327.893 219.433 327.921 219.491C337.996 240.475 308.297 275.668 261.586 298.097Z" fill="url(#paint65_radial_5_11797)"/>
<mask id="mask8_5_11797" style="mask-type:alpha" maskUnits="userSpaceOnUse" x="151" y="192" width="174" height="113">
<ellipse rx="93.8233" ry="42.1472" transform="matrix(-0.901464 0.432854 0.432854 0.901464 237.827 248.606)" fill="url(#paint66_linear_5_11797)"/>
</mask>
<g mask="url(#mask8_5_11797)">
<ellipse rx="93.8233" ry="42.1472" transform="matrix(-0.901464 0.432854 0.432854 0.901464 237.827 248.606)" fill="url(#paint67_linear_5_11797)"/>
<g opacity="0.5" filter="url(#filter21_f_5_11797)">
<mask id="path-58-inside-9_5_11797" fill="white">
<path fill-rule="evenodd" clip-rule="evenodd" d="M159.723 296.903C156.889 294.798 154.694 292.237 153.244 289.217C143.168 268.233 172.867 233.04 219.578 210.611C266.29 188.181 312.325 187.01 322.4 207.993C323.85 211.013 324.477 214.327 324.347 217.854C307.486 205.334 267.993 208.956 228.005 228.158C188.015 247.359 160.494 275.916 159.723 296.903Z"/>
</mask>
<path fill-rule="evenodd" clip-rule="evenodd" d="M159.723 296.903C156.889 294.798 154.694 292.237 153.244 289.217C143.168 268.233 172.867 233.04 219.578 210.611C266.29 188.181 312.325 187.01 322.4 207.993C323.85 211.013 324.477 214.327 324.347 217.854C307.486 205.334 267.993 208.956 228.005 228.158C188.015 247.359 160.494 275.916 159.723 296.903Z" fill="url(#paint68_linear_5_11797)"/>
<path d="M159.723 296.903L162.768 297.014L162.555 302.8L157.907 299.348L159.723 296.903ZM324.347 217.854L327.391 217.966L327.179 223.751L322.531 220.3L324.347 217.854ZM155.99 287.898C157.204 290.426 159.058 292.614 161.539 294.457L157.907 299.348C154.719 296.981 152.184 294.047 150.498 290.535L155.99 287.898ZM220.897 213.357C197.837 224.43 179.112 238.595 167.444 252.421C155.573 266.488 151.795 279.163 155.99 287.898L150.498 290.535C144.616 278.287 150.651 262.874 162.788 248.491C175.129 233.867 194.608 219.221 218.26 207.865L220.897 213.357ZM319.654 209.312C315.46 200.576 303.206 195.599 284.805 196.067C266.72 196.528 243.957 202.284 220.897 213.357L218.26 207.865C241.911 196.508 265.521 190.464 284.65 189.977C303.464 189.498 319.265 194.426 325.147 206.675L319.654 209.312ZM321.303 217.742C321.416 214.655 320.868 211.839 319.654 209.312L325.147 206.675C326.833 210.186 327.537 213.999 327.391 217.966L321.303 217.742ZM322.531 220.3C315.022 214.724 301.884 212.426 285.159 214.141C268.583 215.84 249.052 221.431 229.323 230.904L226.686 225.412C246.946 215.684 267.156 209.862 284.538 208.08C301.773 206.313 316.811 208.464 326.163 215.408L322.531 220.3ZM229.323 230.904C209.594 240.377 193.019 252.124 181.328 263.998C169.532 275.978 163.111 287.668 162.768 297.014L156.679 296.791C157.107 285.15 164.831 272.069 176.986 259.723C189.246 247.272 206.426 235.14 226.686 225.412L229.323 230.904Z" fill="url(#paint69_radial_5_11797)" mask="url(#path-58-inside-9_5_11797)"/>
</g>
<g style="mix-blend-mode:screen" opacity="0.65" filter="url(#filter22_f_5_11797)">
<rect width="75.0638" height="157.558" transform="matrix(-0.925627 -0.378436 -0.378436 0.925627 332.471 206.432)" fill="url(#paint70_linear_5_11797)"/>
<rect width="75.0638" height="157.558" transform="matrix(-0.925627 -0.378436 -0.378436 0.925627 332.471 206.432)" fill="url(#paint71_radial_5_11797)"/>
</g>
</g>
<path fill-rule="evenodd" clip-rule="evenodd" d="M450.843 488.614C428.249 509.499 402.328 518.201 392.946 508.052C392.945 508.05 392.944 508.049 392.943 508.048L392.943 508.049L386.965 501.581L389.573 499.17C388.969 486.827 399.344 468.058 416.868 451.859C434.393 435.66 453.919 426.79 466.176 428.361L468.784 425.951L474.726 432.379C474.739 432.393 474.752 432.407 474.765 432.421C484.147 442.571 473.437 467.729 450.843 488.614Z" fill="#14CABF"/>
<ellipse rx="55.7098" ry="25.0259" transform="matrix(-0.734335 0.678787 0.678787 0.734335 433.855 470.235)" fill="url(#paint72_radial_5_11797)"/>
<mask id="mask9_5_11797" style="mask-type:alpha" maskUnits="userSpaceOnUse" x="384" y="422" width="90" height="85">
<ellipse rx="55.7098" ry="25.0259" transform="matrix(-0.734335 0.678787 0.678787 0.734335 428.717 464.677)" fill="url(#paint73_linear_5_11797)"/>
</mask>
<g mask="url(#mask9_5_11797)">
<ellipse rx="55.7098" ry="25.0259" transform="matrix(-0.734335 0.678787 0.678787 0.734335 428.717 464.677)" fill="url(#paint74_linear_5_11797)"/>
<ellipse rx="55.7098" ry="25.0259" transform="matrix(-0.734335 0.678787 0.678787 0.734335 428.717 464.677)" fill="url(#paint75_linear_5_11797)"/>
<g filter="url(#filter23_f_5_11797)">
<mask id="path-66-inside-10_5_11797" fill="white">
<path fill-rule="evenodd" clip-rule="evenodd" d="M392.825 505.722C390.849 505.023 389.156 503.952 387.806 502.492C378.424 492.342 389.135 467.184 411.729 446.299C434.322 425.415 460.244 416.712 469.626 426.862C470.976 428.322 471.91 430.094 472.452 432.119C460.697 427.957 438.916 436.908 419.574 454.787C400.232 472.666 389.599 493.677 392.825 505.722Z"/>
</mask>
<path fill-rule="evenodd" clip-rule="evenodd" d="M392.825 505.722C390.849 505.023 389.156 503.952 387.806 502.492C378.424 492.342 389.135 467.184 411.729 446.299C434.322 425.415 460.244 416.712 469.626 426.862C470.976 428.322 471.91 430.094 472.452 432.119C460.697 427.957 438.916 436.908 419.574 454.787C400.232 472.666 389.599 493.677 392.825 505.722Z" fill="url(#paint76_linear_5_11797)"/>
<path d="M392.825 505.722L395.753 504.938L397.243 510.502L391.814 508.579L392.825 505.722ZM472.452 432.119L475.38 431.334L476.87 436.898L471.441 434.976L472.452 432.119ZM390.032 500.434C391.014 501.496 392.274 502.312 393.837 502.865L391.814 508.579C389.425 507.734 387.299 506.409 385.58 504.549L390.032 500.434ZM413.786 448.525C402.729 458.746 394.691 469.917 390.565 479.608C386.317 489.588 386.657 496.783 390.032 500.434L385.58 504.549C379.574 498.051 380.578 487.592 384.988 477.234C389.52 466.587 398.135 454.737 409.671 444.074L413.786 448.525ZM467.4 428.919C464.025 425.268 456.879 424.364 446.596 427.816C436.611 431.168 424.843 438.304 413.786 448.525L409.671 444.074C421.208 433.41 433.697 425.752 444.667 422.069C455.339 418.486 465.845 418.306 471.851 424.804L467.4 428.919ZM469.524 432.903C469.095 431.301 468.381 429.981 467.4 428.919L471.851 424.804C473.57 426.664 474.724 428.887 475.38 431.334L469.524 432.903ZM471.441 434.976C466.64 433.276 459.138 434.126 450.04 437.978C441.079 441.774 431.088 448.272 421.632 457.013L417.517 452.561C427.403 443.423 437.973 436.506 447.676 432.396C457.244 428.345 466.51 426.799 473.464 429.261L471.441 434.976ZM421.632 457.013C412.176 465.753 404.913 475.204 400.426 483.84C395.871 492.607 394.435 500.019 395.753 504.938L389.898 506.507C387.989 499.381 390.257 490.265 395.047 481.045C399.906 471.694 407.631 461.699 417.517 452.561L421.632 457.013Z" fill="url(#paint77_radial_5_11797)" mask="url(#path-66-inside-10_5_11797)"/>
</g>
<g style="mix-blend-mode:screen" opacity="0.65" filter="url(#filter24_f_5_11797)">
<rect width="44.5709" height="93.5539" transform="matrix(-0.995984 -0.0895335 -0.0895335 0.995984 475.069 424.219)" fill="url(#paint78_linear_5_11797)"/>
<rect width="44.5709" height="93.5539" transform="matrix(-0.995984 -0.0895335 -0.0895335 0.995984 475.069 424.219)" fill="url(#paint79_radial_5_11797)"/>
</g>
</g>
<path fill-rule="evenodd" clip-rule="evenodd" d="M392.92 69.1658C369.218 55.4818 354.988 35.7575 361.135 25.1103C361.146 25.0916 361.157 25.0729 361.168 25.0542L365.054 18.3226L367.79 19.9019C378.116 16.133 396.797 19.9955 415.181 30.6091C433.564 41.2227 446.25 55.47 448.149 66.2973L450.885 67.8769L446.968 74.6615L446.967 74.6614C446.967 74.6625 446.966 74.6636 446.966 74.6646C440.818 85.3118 416.621 82.8499 392.92 69.1658Z" fill="#14CABF"/>
<ellipse rx="49.5543" ry="22.2607" transform="matrix(-0.866025 -0.5 -0.5 0.866025 404.051 49.886)" fill="url(#paint80_radial_5_11797)"/>
<mask id="mask10_5_11797" style="mask-type:alpha" maskUnits="userSpaceOnUse" x="363" y="12" width="89" height="64">
<ellipse rx="49.5543" ry="22.2607" transform="matrix(-0.866025 -0.5 -0.5 0.866025 407.417 44.0555)" fill="url(#paint81_linear_5_11797)"/>
</mask>
<g mask="url(#mask10_5_11797)">
<ellipse rx="49.5543" ry="22.2607" transform="matrix(-0.866025 -0.5 -0.5 0.866025 407.417 44.0555)" fill="url(#paint82_linear_5_11797)"/>
<ellipse rx="49.5543" ry="22.2607" transform="matrix(-0.866025 -0.5 -0.5 0.866025 407.417 44.0555)" fill="url(#paint83_linear_5_11797)"/>
<g filter="url(#filter25_f_5_11797)">
<mask id="path-74-inside-11_5_11797" fill="white">
<path fill-rule="evenodd" clip-rule="evenodd" d="M363.082 24.3931C363.155 22.53 363.617 20.8098 364.502 19.2776C370.649 8.6305 394.846 11.0924 418.548 24.7764C442.249 38.4605 456.48 58.1848 450.333 68.832C449.448 70.3643 448.189 71.6251 446.612 72.62C447.047 61.5365 433.698 45.3948 413.407 33.6799C393.117 21.9653 372.463 18.4751 363.082 24.3931Z"/>
</mask>
<path fill-rule="evenodd" clip-rule="evenodd" d="M363.082 24.3931C363.155 22.53 363.617 20.8098 364.502 19.2776C370.649 8.6305 394.846 11.0924 418.548 24.7764C442.249 38.4605 456.48 58.1848 450.333 68.832C449.448 70.3643 448.189 71.6251 446.612 72.62C447.047 61.5365 433.698 45.3948 413.407 33.6799C393.117 21.9653 372.463 18.4751 363.082 24.3931Z" fill="url(#paint84_linear_5_11797)"/>
<path d="M363.082 24.3931L366.154 29.2629L356.899 35.1009L357.328 24.1673L363.082 24.3931ZM446.612 72.62L449.684 77.4898L440.43 83.3278L440.859 72.3942L446.612 72.62ZM369.488 22.1566C369.119 22.7955 368.875 23.587 368.835 24.6189L357.328 24.1673C357.434 21.473 358.115 18.8242 359.516 16.3987L369.488 22.1566ZM415.669 29.7628C404.355 23.2309 393.158 19.5263 384.359 18.6311C374.967 17.6755 370.721 20.022 369.488 22.1566L359.516 16.3987C364.43 7.88615 375.356 6.14003 385.525 7.1746C396.287 8.26955 409.039 12.6379 421.427 19.79L415.669 29.7628ZM445.346 65.953C446.578 63.8185 446.488 58.968 440.964 51.3119C435.789 44.1395 426.982 36.2948 415.669 29.7628L421.427 19.79C433.814 26.9421 443.974 35.8016 450.303 44.5742C456.283 52.863 460.234 63.1983 455.319 71.7109L445.346 65.953ZM443.54 67.7502C444.414 67.1992 444.977 66.592 445.346 65.953L455.319 71.7109C453.918 74.1365 451.965 76.051 449.684 77.4898L443.54 67.7502ZM440.859 72.3942C440.991 69.0205 438.89 63.6184 433.384 57.1035C428.059 50.8028 420.192 44.2457 410.528 38.6664L416.286 28.6935C426.913 34.829 435.866 42.2002 442.179 49.67C448.311 56.9255 452.668 65.136 452.366 72.8458L440.859 72.3942ZM410.528 38.6664C400.864 33.0871 391.252 29.5526 383.133 28.091C374.738 26.5798 369.009 27.4615 366.154 29.2629L360.01 19.5233C366.535 15.4067 375.824 15.0745 385.173 16.7575C394.799 18.4903 405.659 22.5581 416.286 28.6935L410.528 38.6664Z" fill="url(#paint85_radial_5_11797)" mask="url(#path-74-inside-11_5_11797)"/>
</g>
<g style="mix-blend-mode:screen" opacity="0.65" filter="url(#filter26_f_5_11797)">
<rect width="39.6462" height="83.2169" transform="matrix(-0.209863 -0.977731 -0.977731 0.209863 454.013 72.7589)" fill="url(#paint86_linear_5_11797)"/>
<rect width="39.6462" height="83.2169" transform="matrix(-0.209863 -0.977731 -0.977731 0.209863 454.013 72.7589)" fill="url(#paint87_radial_5_11797)"/>
</g>
</g>
<defs>
<filter id="filter0_f_5_11797" x="30.1195" y="389.12" width="44.6138" height="66.0646" filterUnits="userSpaceOnUse" color-interpolation-filters="sRGB">
<feFlood flood-opacity="0" result="BackgroundImageFix"/>
<feBlend mode="normal" in="SourceGraphic" in2="BackgroundImageFix" result="shape"/>
<feGaussianBlur stdDeviation="4.5" result="effect1_foregroundBlur_5_11797"/>
</filter>
<filter id="filter1_f_5_11797" x="37.9025" y="396.908" width="21.4174" height="49.8195" filterUnits="userSpaceOnUse" color-interpolation-filters="sRGB">
<feFlood flood-opacity="0" result="BackgroundImageFix"/>
<feBlend mode="normal" in="SourceGraphic" in2="BackgroundImageFix" result="shape"/>
<feGaussianBlur stdDeviation="0.608325" result="effect1_foregroundBlur_5_11797"/>
</filter>
<filter id="filter2_f_5_11797" x="34.3027" y="389.853" width="49.2046" height="56.8483" filterUnits="userSpaceOnUse" color-interpolation-filters="sRGB">
<feFlood flood-opacity="0" result="BackgroundImageFix"/>
<feBlend mode="normal" in="SourceGraphic" in2="BackgroundImageFix" result="shape"/>
<feGaussianBlur stdDeviation="3.04162" result="effect1_foregroundBlur_5_11797"/>
</filter>
<filter id="filter3_f_5_11797" x="232.822" y="273.624" width="130.762" height="130.114" filterUnits="userSpaceOnUse" color-interpolation-filters="sRGB">
<feFlood flood-opacity="0" result="BackgroundImageFix"/>
<feBlend mode="normal" in="SourceGraphic" in2="BackgroundImageFix" result="shape"/>
<feGaussianBlur stdDeviation="2.15612" result="effect1_foregroundBlur_5_11797"/>
</filter>
<filter id="filter4_f_5_11797" x="203.485" y="311.538" width="179.043" height="112.686" filterUnits="userSpaceOnUse" color-interpolation-filters="sRGB">
<feFlood flood-opacity="0" result="BackgroundImageFix"/>
<feBlend mode="normal" in="SourceGraphic" in2="BackgroundImageFix" result="shape"/>
<feGaussianBlur stdDeviation="10.7806" result="effect1_foregroundBlur_5_11797"/>
</filter>
<filter id="filter5_f_5_11797" x="4.85562" y="482.784" width="75.6445" height="74.9869" filterUnits="userSpaceOnUse" color-interpolation-filters="sRGB">
<feFlood flood-opacity="0" result="BackgroundImageFix"/>
<feBlend mode="normal" in="SourceGraphic" in2="BackgroundImageFix" result="shape"/>
<feGaussianBlur stdDeviation="2.49626" result="effect1_foregroundBlur_5_11797"/>
</filter>
<filter id="filter6_f_5_11797" x="5.23879" y="487.598" width="70.5835" height="69.7908" filterUnits="userSpaceOnUse" color-interpolation-filters="sRGB">
<feFlood flood-opacity="0" result="BackgroundImageFix"/>
<feBlend mode="normal" in="SourceGraphic" in2="BackgroundImageFix" result="shape"/>
<feGaussianBlur stdDeviation="2.30474" result="effect1_foregroundBlur_5_11797"/>
</filter>
<filter id="filter7_f_5_11797" x="-13.9414" y="467.569" width="113.975" height="80.5721" filterUnits="userSpaceOnUse" color-interpolation-filters="sRGB">
<feFlood flood-opacity="0" result="BackgroundImageFix"/>
<feBlend mode="normal" in="SourceGraphic" in2="BackgroundImageFix" result="shape"/>
<feGaussianBlur stdDeviation="11.5237" result="effect1_foregroundBlur_5_11797"/>
</filter>
<filter id="filter8_f_5_11797" x="38.7866" y="55.512" width="89.3803" height="55.6229" filterUnits="userSpaceOnUse" color-interpolation-filters="sRGB">
<feFlood flood-opacity="0" result="BackgroundImageFix"/>
<feBlend mode="normal" in="SourceGraphic" in2="BackgroundImageFix" result="shape"/>
<feGaussianBlur stdDeviation="0.762261" result="effect1_foregroundBlur_5_11797"/>
</filter>
<filter id="filter9_f_5_11797" x="42.5887" y="83.4226" width="81.2599" height="44.1146" filterUnits="userSpaceOnUse" color-interpolation-filters="sRGB">
<feFlood flood-opacity="0" result="BackgroundImageFix"/>
<feBlend mode="normal" in="SourceGraphic" in2="BackgroundImageFix" result="shape"/>
<feGaussianBlur stdDeviation="2.13673" result="effect1_foregroundBlur_5_11797"/>
</filter>
<filter id="filter10_f_5_11797" x="95.8595" y="421.958" width="59.862" height="87.0758" filterUnits="userSpaceOnUse" color-interpolation-filters="sRGB">
<feFlood flood-opacity="0" result="BackgroundImageFix"/>
<feBlend mode="normal" in="SourceGraphic" in2="BackgroundImageFix" result="shape"/>
<feGaussianBlur stdDeviation="0.762261" result="effect1_foregroundBlur_5_11797"/>
</filter>
<filter id="filter11_f_5_11797" x="94.3695" y="444.286" width="87.8016" height="76.5895" filterUnits="userSpaceOnUse" color-interpolation-filters="sRGB">
<feFlood flood-opacity="0" result="BackgroundImageFix"/>
<feBlend mode="normal" in="SourceGraphic" in2="BackgroundImageFix" result="shape"/>
<feGaussianBlur stdDeviation="2.13673" result="effect1_foregroundBlur_5_11797"/>
</filter>
<filter id="filter12_f_5_11797" x="303.671" y="481.919" width="74.6473" height="84.4138" filterUnits="userSpaceOnUse" color-interpolation-filters="sRGB">
<feFlood flood-opacity="0" result="BackgroundImageFix"/>
<feBlend mode="normal" in="SourceGraphic" in2="BackgroundImageFix" result="shape"/>
<feGaussianBlur stdDeviation="5.41311" result="effect1_foregroundBlur_5_11797"/>
</filter>
<filter id="filter13_f_5_11797" x="313.427" y="494.644" width="50.0739" height="61.9349" filterUnits="userSpaceOnUse" color-interpolation-filters="sRGB">
<feFlood flood-opacity="0" result="BackgroundImageFix"/>
<feBlend mode="normal" in="SourceGraphic" in2="BackgroundImageFix" result="shape"/>
<feGaussianBlur stdDeviation="0.53487" result="effect1_foregroundBlur_5_11797"/>
</filter>
<filter id="filter14_f_5_11797" x="305.832" y="488.165" width="74.4594" height="50.1815" filterUnits="userSpaceOnUse" color-interpolation-filters="sRGB">
<feFlood flood-opacity="0" result="BackgroundImageFix"/>
<feBlend mode="normal" in="SourceGraphic" in2="BackgroundImageFix" result="shape"/>
<feGaussianBlur stdDeviation="2.67435" result="effect1_foregroundBlur_5_11797"/>
</filter>
<filter id="filter15_f_5_11797" x="50.9771" y="160.969" width="82.006" height="48.1505" filterUnits="userSpaceOnUse" color-interpolation-filters="sRGB">
<feFlood flood-opacity="0" result="BackgroundImageFix"/>
<feBlend mode="normal" in="SourceGraphic" in2="BackgroundImageFix" result="shape"/>
<feGaussianBlur stdDeviation="2.5" result="effect1_foregroundBlur_5_11797"/>
</filter>
<filter id="filter16_f_5_11797" x="54.8524" y="178.101" width="73.6673" height="27.1855" filterUnits="userSpaceOnUse" color-interpolation-filters="sRGB">
<feFlood flood-opacity="0" result="BackgroundImageFix"/>
<feBlend mode="normal" in="SourceGraphic" in2="BackgroundImageFix" result="shape"/>
<feGaussianBlur stdDeviation="0.582911" result="effect1_foregroundBlur_5_11797"/>
</filter>
<filter id="filter17_f_5_11797" x="46.6959" y="141.073" width="77.5832" height="69.6051" filterUnits="userSpaceOnUse" color-interpolation-filters="sRGB">
<feFlood flood-opacity="0" result="BackgroundImageFix"/>
<feBlend mode="normal" in="SourceGraphic" in2="BackgroundImageFix" result="shape"/>
<feGaussianBlur stdDeviation="2.91456" result="effect1_foregroundBlur_5_11797"/>
</filter>
<filter id="filter18_f_5_11797" x="392.975" y="94.8212" width="76.1079" height="45.5623" filterUnits="userSpaceOnUse" color-interpolation-filters="sRGB">
<feFlood flood-opacity="0" result="BackgroundImageFix"/>
<feBlend mode="normal" in="SourceGraphic" in2="BackgroundImageFix" result="shape"/>
<feGaussianBlur stdDeviation="1" result="effect1_foregroundBlur_5_11797"/>
</filter>
<filter id="filter19_f_5_11797" x="395.075" y="105.995" width="73.1915" height="33.5713" filterUnits="userSpaceOnUse" color-interpolation-filters="sRGB">
<feFlood flood-opacity="0" result="BackgroundImageFix"/>
<feBlend mode="normal" in="SourceGraphic" in2="BackgroundImageFix" result="shape"/>
<feGaussianBlur stdDeviation="0.590885" result="effect1_foregroundBlur_5_11797"/>
</filter>
<filter id="filter20_f_5_11797" x="386.654" y="72.0495" width="69.458" height="78.9558" filterUnits="userSpaceOnUse" color-interpolation-filters="sRGB">
<feFlood flood-opacity="0" result="BackgroundImageFix"/>
<feBlend mode="normal" in="SourceGraphic" in2="BackgroundImageFix" result="shape"/>
<feGaussianBlur stdDeviation="2.95443" result="effect1_foregroundBlur_5_11797"/>
</filter>
<filter id="filter21_f_5_11797" x="148.234" y="189.945" width="179.176" height="110.004" filterUnits="userSpaceOnUse" color-interpolation-filters="sRGB">
<feFlood flood-opacity="0" result="BackgroundImageFix"/>
<feBlend mode="normal" in="SourceGraphic" in2="BackgroundImageFix" result="shape"/>
<feGaussianBlur stdDeviation="1.52317" result="effect1_foregroundBlur_5_11797"/>
</filter>
<filter id="filter22_f_5_11797" x="188.133" y="162.794" width="159.57" height="204.71" filterUnits="userSpaceOnUse" color-interpolation-filters="sRGB">
<feFlood flood-opacity="0" result="BackgroundImageFix"/>
<feBlend mode="normal" in="SourceGraphic" in2="BackgroundImageFix" result="shape"/>
<feGaussianBlur stdDeviation="7.61586" result="effect1_foregroundBlur_5_11797"/>
</filter>
<filter id="filter23_f_5_11797" x="381.377" y="419.592" width="94.1061" height="89.1613" filterUnits="userSpaceOnUse" color-interpolation-filters="sRGB">
<feFlood flood-opacity="0" result="BackgroundImageFix"/>
<feBlend mode="normal" in="SourceGraphic" in2="BackgroundImageFix" result="shape"/>
<feGaussianBlur stdDeviation="1.51547" result="effect1_foregroundBlur_5_11797"/>
</filter>
<filter id="filter24_f_5_11797" x="407.146" y="405.074" width="83.0777" height="127.478" filterUnits="userSpaceOnUse" color-interpolation-filters="sRGB">
<feFlood flood-opacity="0" result="BackgroundImageFix"/>
<feBlend mode="normal" in="SourceGraphic" in2="BackgroundImageFix" result="shape"/>
<feGaussianBlur stdDeviation="7.57737" result="effect1_foregroundBlur_5_11797"/>
</filter>
<filter id="filter25_f_5_11797" x="357.324" y="6.90189" width="100.197" height="71.4759" filterUnits="userSpaceOnUse" color-interpolation-filters="sRGB">
<feFlood flood-opacity="0" result="BackgroundImageFix"/>
<feBlend mode="normal" in="SourceGraphic" in2="BackgroundImageFix" result="shape"/>
<feGaussianBlur stdDeviation="2.87891" result="effect1_foregroundBlur_5_11797"/>
</filter>
<filter id="filter26_f_5_11797" x="335.54" y="5.20657" width="147.262" height="113.806" filterUnits="userSpaceOnUse" color-interpolation-filters="sRGB">
<feFlood flood-opacity="0" result="BackgroundImageFix"/>
<feBlend mode="normal" in="SourceGraphic" in2="BackgroundImageFix" result="shape"/>
<feGaussianBlur stdDeviation="14.3945" result="effect1_foregroundBlur_5_11797"/>
</filter>
<radialGradient id="paint0_radial_5_11797" cx="0" cy="0" r="1" gradientUnits="userSpaceOnUse" gradientTransform="translate(24.1033 18.4861) rotate(-90) scale(19.006 42.309)">
<stop stop-color="#F6F8FC"/>
<stop offset="1" stop-color="#14CABF"/>
</radialGradient>
<linearGradient id="paint1_linear_5_11797" x1="24.1033" y1="0" x2="24.1033" y2="21.6553" gradientUnits="userSpaceOnUse">
<stop stop-color="#5AECDE"/>
<stop offset="1" stop-color="#36A1AC"/>
</linearGradient>
<linearGradient id="paint2_linear_5_11797" x1="24.1033" y1="0" x2="24.1033" y2="21.6553" gradientUnits="userSpaceOnUse">
<stop stop-color="#5AECDE"/>
<stop offset="1" stop-color="#36A1AC"/>
</linearGradient>
<linearGradient id="paint3_linear_5_11797" x1="24.1033" y1="0" x2="24.1033" y2="21.6553" gradientUnits="userSpaceOnUse">
<stop offset="0.105655" stop-color="#36A1AC"/>
<stop offset="1" stop-color="#5AECDE"/>
</linearGradient>
<linearGradient id="paint4_linear_5_11797" x1="40.228" y1="419.587" x2="52.6277" y2="422.198" gradientUnits="userSpaceOnUse">
<stop stop-color="#24324F"/>
<stop offset="1" stop-color="#24324F" stop-opacity="0"/>
</linearGradient>
<radialGradient id="paint5_radial_5_11797" cx="0" cy="0" r="1" gradientUnits="userSpaceOnUse" gradientTransform="translate(43.6145 411.419) rotate(25.5608) scale(3.60068 13.0232)">
<stop stop-color="white"/>
<stop offset="1" stop-color="white" stop-opacity="0"/>
</radialGradient>
<linearGradient id="paint6_linear_5_11797" x1="13.4584" y1="7.35583" x2="13.1242" y2="31.6028" gradientUnits="userSpaceOnUse">
<stop stop-color="#00F5DD" stop-opacity="0"/>
<stop offset="1" stop-color="white"/>
</linearGradient>
<radialGradient id="paint7_radial_5_11797" cx="0" cy="0" r="1" gradientUnits="userSpaceOnUse" gradientTransform="translate(18.2048 36.0506) rotate(169.545) scale(19.807 16.7268)">
<stop stop-color="white"/>
<stop offset="1" stop-color="white" stop-opacity="0"/>
</radialGradient>
<radialGradient id="paint8_radial_5_11797" cx="0" cy="0" r="1" gradientUnits="userSpaceOnUse" gradientTransform="translate(79.2606 60.7893) rotate(-90) scale(62.4988 139.128)">
<stop stop-color="#F6F8FC"/>
<stop offset="1" stop-color="#14CABF"/>
</radialGradient>
<linearGradient id="paint9_linear_5_11797" x1="79.2606" y1="0" x2="79.2606" y2="71.2108" gradientUnits="userSpaceOnUse">
<stop stop-color="#5AECDE"/>
<stop offset="1" stop-color="#36A1AC"/>
</linearGradient>
<linearGradient id="paint10_linear_5_11797" x1="79.2606" y1="0" x2="79.2606" y2="71.2108" gradientUnits="userSpaceOnUse">
<stop stop-color="#5AECDE"/>
<stop offset="1" stop-color="#36A1AC"/>
</linearGradient>
<linearGradient id="paint11_linear_5_11797" x1="79.2606" y1="0" x2="79.2606" y2="71.2108" gradientUnits="userSpaceOnUse">
<stop offset="0.105655" stop-color="#36A1AC"/>
<stop offset="1" stop-color="#5AECDE"/>
</linearGradient>
<linearGradient id="paint12_linear_5_11797" x1="322.753" y1="313.977" x2="293.396" y2="343.547" gradientUnits="userSpaceOnUse">
<stop stop-color="#24324F"/>
<stop offset="1" stop-color="#24324F" stop-opacity="0"/>
</linearGradient>
<radialGradient id="paint13_radial_5_11797" cx="0" cy="0" r="1" gradientUnits="userSpaceOnUse" gradientTransform="translate(339.255 337.917) rotate(148.464) scale(11.8402 42.8251)">
<stop stop-color="white"/>
<stop offset="1" stop-color="white" stop-opacity="0"/>
</radialGradient>
<linearGradient id="paint14_linear_5_11797" x1="44.2564" y1="24.1887" x2="43.1573" y2="103.922" gradientUnits="userSpaceOnUse">
<stop stop-color="#00F5DD" stop-opacity="0"/>
<stop offset="1" stop-color="white"/>
</linearGradient>
<radialGradient id="paint15_radial_5_11797" cx="0" cy="0" r="1" gradientUnits="userSpaceOnUse" gradientTransform="translate(59.8643 118.548) rotate(169.545) scale(65.1328 55.0041)">
<stop stop-color="white"/>
<stop offset="1" stop-color="white" stop-opacity="0"/>
</radialGradient>
<radialGradient id="paint16_radial_5_11797" cx="0" cy="0" r="1" gradientUnits="userSpaceOnUse" gradientTransform="translate(39.6712 30.426) rotate(-90) scale(31.2816 69.6356)">
<stop stop-color="#F6F8FC"/>
<stop offset="1" stop-color="#14CABF"/>
</radialGradient>
<linearGradient id="paint17_linear_5_11797" x1="39.6712" y1="0" x2="39.6712" y2="35.6421" gradientUnits="userSpaceOnUse">
<stop stop-color="#5AECDE"/>
<stop offset="1" stop-color="#36A1AC"/>
</linearGradient>
<linearGradient id="paint18_linear_5_11797" x1="39.6712" y1="0" x2="39.6712" y2="35.6421" gradientUnits="userSpaceOnUse">
<stop stop-color="#5AECDE"/>
<stop offset="1" stop-color="#36A1AC"/>
</linearGradient>
<linearGradient id="paint19_linear_5_11797" x1="39.6712" y1="0" x2="39.6712" y2="35.6421" gradientUnits="userSpaceOnUse">
<stop offset="0.105655" stop-color="#36A1AC"/>
<stop offset="1" stop-color="#5AECDE"/>
</linearGradient>
<linearGradient id="paint20_linear_5_11797" x1="28.2988" y1="534.913" x2="42.9151" y2="520.036" gradientUnits="userSpaceOnUse">
<stop stop-color="#24324F"/>
<stop offset="1" stop-color="#24324F" stop-opacity="0"/>
</linearGradient>
<radialGradient id="paint21_radial_5_11797" cx="0" cy="0" r="1" gradientUnits="userSpaceOnUse" gradientTransform="translate(19.977 522.974) rotate(-31.8353) scale(5.92626 21.4347)">
<stop stop-color="white"/>
<stop offset="1" stop-color="white" stop-opacity="0"/>
</radialGradient>
<linearGradient id="paint22_linear_5_11797" x1="22.151" y1="12.1068" x2="21.6009" y2="52.0145" gradientUnits="userSpaceOnUse">
<stop stop-color="#00F5DD" stop-opacity="0"/>
<stop offset="1" stop-color="white"/>
</linearGradient>
<radialGradient id="paint23_radial_5_11797" cx="0" cy="0" r="1" gradientUnits="userSpaceOnUse" gradientTransform="translate(29.963 59.335) rotate(169.545) scale(32.6 27.5304)">
<stop stop-color="white"/>
<stop offset="1" stop-color="white" stop-opacity="0"/>
</radialGradient>
<radialGradient id="paint24_radial_5_11797" cx="0" cy="0" r="1" gradientUnits="userSpaceOnUse" gradientTransform="translate(105.381 99.8835) rotate(165.969) scale(60.4065 36.7692)">
<stop stop-color="#687A9E"/>
<stop offset="0.422819" stop-color="#47587A"/>
</radialGradient>
<radialGradient id="paint25_radial_5_11797" cx="0" cy="0" r="1" gradientUnits="userSpaceOnUse" gradientTransform="translate(131.875 61.9914) rotate(95.6065) scale(54.6019 49.6514)">
<stop stop-color="white"/>
<stop offset="1" stop-color="#5886DE" stop-opacity="0"/>
</radialGradient>
<linearGradient id="paint26_linear_5_11797" x1="83.4764" y1="64.0005" x2="83.4764" y2="106.185" gradientUnits="userSpaceOnUse">
<stop stop-color="#5AECDE"/>
<stop offset="1" stop-color="#36A1AC"/>
</linearGradient>
<radialGradient id="paint27_radial_5_11797" cx="0" cy="0" r="1" gradientUnits="userSpaceOnUse" gradientTransform="translate(99.0649 106.829) rotate(-125.646) scale(60.5066 134.693)">
<stop stop-color="#6C81A8"/>
<stop offset="1" stop-color="#313F5D"/>
</radialGradient>
<linearGradient id="paint28_linear_5_11797" x1="74.1765" y1="66.1592" x2="85.0604" y2="88.314" gradientUnits="userSpaceOnUse">
<stop stop-color="#060E24"/>
<stop offset="1" stop-color="#0E152A" stop-opacity="0"/>
</linearGradient>
<radialGradient id="paint29_radial_5_11797" cx="0" cy="0" r="1" gradientUnits="userSpaceOnUse" gradientTransform="translate(60.3829 76.4755) rotate(50.1654) scale(7.01401 25.3692)">
<stop stop-color="white"/>
<stop offset="1" stop-color="white" stop-opacity="0"/>
</radialGradient>
<linearGradient id="paint30_linear_5_11797" x1="72.2569" y1="130.63" x2="59.4086" y2="185.144" gradientUnits="userSpaceOnUse">
<stop stop-color="#6F8BBB" stop-opacity="0"/>
<stop offset="1" stop-color="#75A7FF"/>
</linearGradient>
<radialGradient id="paint31_radial_5_11797" cx="0" cy="0" r="1" gradientUnits="userSpaceOnUse" gradientTransform="translate(83.9775 187.365) rotate(-166.795) scale(57.0755 48.1997)">
<stop stop-color="white"/>
<stop offset="1" stop-color="white" stop-opacity="0"/>
</radialGradient>
<radialGradient id="paint32_radial_5_11797" cx="0" cy="0" r="1" gradientUnits="userSpaceOnUse" gradientTransform="translate(153.563 465.591) rotate(132.133) scale(60.4065 36.7692)">
<stop stop-color="#687A9E"/>
<stop offset="0.422819" stop-color="#47587A"/>
</radialGradient>
<radialGradient id="paint33_radial_5_11797" cx="0" cy="0" r="1" gradientUnits="userSpaceOnUse" gradientTransform="translate(154.47 419.364) rotate(61.7698) scale(54.6019 49.6514)">
<stop stop-color="white"/>
<stop offset="1" stop-color="#5886DE" stop-opacity="0"/>
</radialGradient>
<linearGradient id="paint34_linear_5_11797" x1="127.132" y1="444.411" x2="127.132" y2="486.595" gradientUnits="userSpaceOnUse">
<stop stop-color="#5AECDE"/>
<stop offset="1" stop-color="#36A1AC"/>
</linearGradient>
<radialGradient id="paint35_radial_5_11797" cx="0" cy="0" r="1" gradientUnits="userSpaceOnUse" gradientTransform="translate(142.721 487.24) rotate(-125.646) scale(60.5066 134.693)">
<stop stop-color="#6C81A8"/>
<stop offset="1" stop-color="#313F5D"/>
</radialGradient>
<linearGradient id="paint36_linear_5_11797" x1="108.865" y1="454.955" x2="130.242" y2="467.296" gradientUnits="userSpaceOnUse">
<stop stop-color="#060E24"/>
<stop offset="1" stop-color="#0E152A" stop-opacity="0"/>
</linearGradient>
<radialGradient id="paint37_radial_5_11797" cx="0" cy="0" r="1" gradientUnits="userSpaceOnUse" gradientTransform="translate(103.152 471.204) rotate(16.3286) scale(7.01401 25.3692)">
<stop stop-color="white"/>
<stop offset="1" stop-color="white" stop-opacity="0"/>
</radialGradient>
<linearGradient id="paint38_linear_5_11797" x1="142.702" y1="525.166" x2="129.854" y2="579.679" gradientUnits="userSpaceOnUse">
<stop stop-color="#6F8BBB" stop-opacity="0"/>
<stop offset="1" stop-color="#75A7FF"/>
</linearGradient>
<radialGradient id="paint39_radial_5_11797" cx="0" cy="0" r="1" gradientUnits="userSpaceOnUse" gradientTransform="translate(154.423 581.9) rotate(-166.795) scale(57.0755 48.1997)">
<stop stop-color="white"/>
<stop offset="1" stop-color="white" stop-opacity="0"/>
</radialGradient>
<radialGradient id="paint40_radial_5_11797" cx="0" cy="0" r="1" gradientUnits="userSpaceOnUse" gradientTransform="translate(358.818 523.258) rotate(-138.566) scale(45.4536 27.6674)">
<stop stop-color="#687A9E"/>
<stop offset="0.422819" stop-color="#47587A"/>
</radialGradient>
<radialGradient id="paint41_radial_5_11797" cx="0" cy="0" r="1" gradientUnits="userSpaceOnUse" gradientTransform="translate(352.255 534.874) rotate(-30.0605) scale(30.4963 27.7314)">
<stop offset="0.104167" stop-color="white"/>
<stop offset="1" stop-color="#5886DE" stop-opacity="0"/>
</radialGradient>
<linearGradient id="paint42_linear_5_11797" x1="35.3305" y1="0" x2="35.3305" y2="31.7423" gradientUnits="userSpaceOnUse">
<stop stop-color="#5AECDE"/>
<stop offset="1" stop-color="#36A1AC"/>
</linearGradient>
<linearGradient id="paint43_linear_5_11797" x1="35.3305" y1="0" x2="35.3305" y2="31.7423" gradientUnits="userSpaceOnUse">
<stop stop-color="#6C81A8"/>
<stop offset="0.693775" stop-color="#313F5D"/>
</linearGradient>
<linearGradient id="paint44_linear_5_11797" x1="326.293" y1="534.98" x2="341.237" y2="523.949" gradientUnits="userSpaceOnUse">
<stop stop-color="#060E24"/>
<stop offset="1" stop-color="#0E152A" stop-opacity="0"/>
</linearGradient>
<radialGradient id="paint45_radial_5_11797" cx="0" cy="0" r="1" gradientUnits="userSpaceOnUse" gradientTransform="translate(320.652 523.311) rotate(-22.7616) scale(5.27776 19.0893)">
<stop stop-color="white"/>
<stop offset="1" stop-color="white" stop-opacity="0"/>
</radialGradient>
<linearGradient id="paint46_linear_5_11797" x1="20.8821" y1="7.04235" x2="10.3169" y2="51.8684" gradientUnits="userSpaceOnUse">
<stop stop-color="#6F8BBB" stop-opacity="0"/>
<stop offset="1" stop-color="#75A7FF"/>
</linearGradient>
<radialGradient id="paint47_radial_5_11797" cx="0" cy="0" r="1" gradientUnits="userSpaceOnUse" gradientTransform="translate(30.5198 53.6949) rotate(-166.795) scale(46.933 39.6345)">
<stop stop-color="white"/>
<stop offset="1" stop-color="white" stop-opacity="0"/>
</radialGradient>
<radialGradient id="paint48_radial_5_11797" cx="0" cy="0" r="1" gradientUnits="userSpaceOnUse" gradientTransform="translate(103.91 171.368) rotate(175.275) scale(46.1934 28.1178)">
<stop stop-color="#687A9E"/>
<stop offset="0.422819" stop-color="#47587A"/>
</radialGradient>
<radialGradient id="paint49_radial_5_11797" cx="0" cy="0" r="1" gradientUnits="userSpaceOnUse" gradientTransform="translate(107.805 184.355) rotate(-76.2196) scale(30.9928 28.1827)">
<stop offset="0.104167" stop-color="white"/>
<stop offset="1" stop-color="#5886DE" stop-opacity="0"/>
</radialGradient>
<linearGradient id="paint50_linear_5_11797" x1="35.9058" y1="0" x2="35.9058" y2="32.2591" gradientUnits="userSpaceOnUse">
<stop stop-color="#5AECDE"/>
<stop offset="1" stop-color="#36A1AC"/>
</linearGradient>
<linearGradient id="paint51_linear_5_11797" x1="35.9058" y1="0" x2="35.9058" y2="32.2591" gradientUnits="userSpaceOnUse">
<stop stop-color="#6C81A8"/>
<stop offset="0.693775" stop-color="#313F5D"/>
</linearGradient>
<linearGradient id="paint52_linear_5_11797" x1="89.6064" y1="203.46" x2="92.0403" y2="184.74" gradientUnits="userSpaceOnUse">
<stop stop-color="#060E24"/>
<stop offset="1" stop-color="#0E152A" stop-opacity="0"/>
</linearGradient>
<radialGradient id="paint53_radial_5_11797" cx="0" cy="0" r="1" gradientUnits="userSpaceOnUse" gradientTransform="translate(77.0819 199.381) rotate(-68.9213) scale(5.36394 19.4002)">
<stop stop-color="white"/>
<stop offset="1" stop-color="white" stop-opacity="0"/>
</radialGradient>
<linearGradient id="paint54_linear_5_11797" x1="21.2221" y1="7.15702" x2="10.4849" y2="52.713" gradientUnits="userSpaceOnUse">
<stop stop-color="#6F8BBB" stop-opacity="0"/>
<stop offset="1" stop-color="#75A7FF"/>
</linearGradient>
<radialGradient id="paint55_radial_5_11797" cx="0" cy="0" r="1" gradientUnits="userSpaceOnUse" gradientTransform="translate(31.0168 54.5691) rotate(-166.795) scale(47.6972 40.2799)">
<stop stop-color="white"/>
<stop offset="1" stop-color="white" stop-opacity="0"/>
</radialGradient>
<radialGradient id="paint56_radial_5_11797" cx="0" cy="0" r="1" gradientUnits="userSpaceOnUse" gradientTransform="translate(436.905 100.184) rotate(152.867) scale(46.8254 28.5025)">
<stop stop-color="#687A9E"/>
<stop offset="0.422819" stop-color="#47587A"/>
</radialGradient>
<radialGradient id="paint57_radial_5_11797" cx="0" cy="0" r="1" gradientUnits="userSpaceOnUse" gradientTransform="translate(445.574 110.85) rotate(-98.6275) scale(31.4168 28.5683)">
<stop offset="0.104167" stop-color="white"/>
<stop offset="1" stop-color="#5886DE" stop-opacity="0"/>
</radialGradient>
<linearGradient id="paint58_linear_5_11797" x1="36.3969" y1="0" x2="36.3969" y2="32.7004" gradientUnits="userSpaceOnUse">
<stop stop-color="#5AECDE"/>
<stop offset="1" stop-color="#36A1AC"/>
</linearGradient>
<linearGradient id="paint59_linear_5_11797" x1="36.3969" y1="0" x2="36.3969" y2="32.7004" gradientUnits="userSpaceOnUse">
<stop stop-color="#6C81A8"/>
<stop offset="0.693775" stop-color="#313F5D"/>
</linearGradient>
<linearGradient id="paint60_linear_5_11797" x1="435.902" y1="135.785" x2="430.95" y2="117.302" gradientUnits="userSpaceOnUse">
<stop stop-color="#060E24"/>
<stop offset="1" stop-color="#0E152A" stop-opacity="0"/>
</linearGradient>
<radialGradient id="paint61_radial_5_11797" cx="0" cy="0" r="1" gradientUnits="userSpaceOnUse" gradientTransform="translate(422.589 136.803) rotate(-91.3294) scale(5.43736 19.6656)">
<stop stop-color="white"/>
<stop offset="1" stop-color="white" stop-opacity="0"/>
</radialGradient>
<linearGradient id="paint62_linear_5_11797" x1="21.5124" y1="7.25492" x2="10.6283" y2="53.4341" gradientUnits="userSpaceOnUse">
<stop stop-color="#6F8BBB" stop-opacity="0"/>
<stop offset="1" stop-color="#75A7FF"/>
</linearGradient>
<radialGradient id="paint63_radial_5_11797" cx="0" cy="0" r="1" gradientUnits="userSpaceOnUse" gradientTransform="translate(31.4411 55.3156) rotate(-166.795) scale(48.3497 40.8309)">
<stop stop-color="white"/>
<stop offset="1" stop-color="white" stop-opacity="0"/>
</radialGradient>
<radialGradient id="paint64_radial_5_11797" cx="0" cy="0" r="1" gradientUnits="userSpaceOnUse" gradientTransform="translate(233.993 301.283) rotate(-37.7815) scale(120.706 73.4731)">
<stop stop-color="#687A9E"/>
<stop offset="0.422819" stop-color="#47587A"/>
</radialGradient>
<radialGradient id="paint65_radial_5_11797" cx="0" cy="0" r="1" gradientUnits="userSpaceOnUse" gradientTransform="translate(206.951 278.391) rotate(70.7237) scale(80.9856 73.6431)">
<stop offset="0.104167" stop-color="white"/>
<stop offset="1" stop-color="#5886DE" stop-opacity="0"/>
</radialGradient>
<linearGradient id="paint66_linear_5_11797" x1="93.8233" y1="0" x2="93.8233" y2="84.2944" gradientUnits="userSpaceOnUse">
<stop stop-color="#5AECDE"/>
<stop offset="1" stop-color="#36A1AC"/>
</linearGradient>
<linearGradient id="paint67_linear_5_11797" x1="93.8233" y1="0" x2="93.8233" y2="84.2944" gradientUnits="userSpaceOnUse">
<stop stop-color="#6C81A8"/>
<stop offset="0.693775" stop-color="#313F5D"/>
</linearGradient>
<linearGradient id="paint68_linear_5_11797" x1="219.578" y1="210.611" x2="240.929" y2="255.075" gradientUnits="userSpaceOnUse">
<stop stop-color="#060E24"/>
<stop offset="1" stop-color="#0E152A" stop-opacity="0"/>
</linearGradient>
<radialGradient id="paint69_radial_5_11797" cx="0" cy="0" r="1" gradientUnits="userSpaceOnUse" gradientTransform="translate(252.822 201.691) rotate(78.0224) scale(14.0157 50.6935)">
<stop stop-color="white"/>
<stop offset="1" stop-color="white" stop-opacity="0"/>
</radialGradient>
<linearGradient id="paint70_linear_5_11797" x1="55.4542" y1="18.7016" x2="27.3974" y2="137.741" gradientUnits="userSpaceOnUse">
<stop stop-color="#6F8BBB" stop-opacity="0"/>
<stop offset="1" stop-color="#75A7FF"/>
</linearGradient>
<radialGradient id="paint71_radial_5_11797" cx="0" cy="0" r="1" gradientUnits="userSpaceOnUse" gradientTransform="translate(81.0482 142.592) rotate(-166.795) scale(124.635 105.253)">
<stop stop-color="white"/>
<stop offset="1" stop-color="white" stop-opacity="0"/>
</radialGradient>
<radialGradient id="paint72_radial_5_11797" cx="0" cy="0" r="1" gradientUnits="userSpaceOnUse" gradientTransform="translate(55.7098 42.7269) rotate(-90) scale(43.9284 97.7885)">
<stop stop-color="#F6F8FC"/>
<stop offset="1" stop-color="#14CABF"/>
</radialGradient>
<linearGradient id="paint73_linear_5_11797" x1="55.7098" y1="0" x2="55.7098" y2="50.0518" gradientUnits="userSpaceOnUse">
<stop stop-color="#5AECDE"/>
<stop offset="1" stop-color="#36A1AC"/>
</linearGradient>
<linearGradient id="paint74_linear_5_11797" x1="55.7098" y1="0" x2="55.7098" y2="50.0518" gradientUnits="userSpaceOnUse">
<stop stop-color="#5AECDE"/>
<stop offset="1" stop-color="#36A1AC"/>
</linearGradient>
<linearGradient id="paint75_linear_5_11797" x1="55.7098" y1="0" x2="55.7098" y2="50.0518" gradientUnits="userSpaceOnUse">
<stop offset="0.105655" stop-color="#36A1AC"/>
<stop offset="1" stop-color="#5AECDE"/>
</linearGradient>
<linearGradient id="paint76_linear_5_11797" x1="411.729" y1="446.299" x2="431.608" y2="467.806" gradientUnits="userSpaceOnUse">
<stop stop-color="#24324F"/>
<stop offset="1" stop-color="#24324F" stop-opacity="0"/>
</linearGradient>
<radialGradient id="paint77_radial_5_11797" cx="0" cy="0" r="1" gradientUnits="userSpaceOnUse" gradientTransform="translate(429.038 435.433) rotate(60.9224) scale(8.32211 30.1005)">
<stop stop-color="white"/>
<stop offset="1" stop-color="white" stop-opacity="0"/>
</radialGradient>
<linearGradient id="paint78_linear_5_11797" x1="31.1064" y1="17.0015" x2="30.3339" y2="73.0434" gradientUnits="userSpaceOnUse">
<stop stop-color="#00F5DD" stop-opacity="0"/>
<stop offset="1" stop-color="white"/>
</linearGradient>
<radialGradient id="paint79_radial_5_11797" cx="0" cy="0" r="1" gradientUnits="userSpaceOnUse" gradientTransform="translate(42.0768 83.3235) rotate(169.545) scale(45.7799 38.6607)">
<stop stop-color="white"/>
<stop offset="1" stop-color="white" stop-opacity="0"/>
</radialGradient>
<radialGradient id="paint80_radial_5_11797" cx="0" cy="0" r="1" gradientUnits="userSpaceOnUse" gradientTransform="translate(49.5543 38.0059) rotate(-90) scale(39.0747 86.9836)">
<stop stop-color="#F6F8FC"/>
<stop offset="1" stop-color="#14CABF"/>
</radialGradient>
<linearGradient id="paint81_linear_5_11797" x1="49.5543" y1="0" x2="49.5543" y2="44.5215" gradientUnits="userSpaceOnUse">
<stop stop-color="#5AECDE"/>
<stop offset="1" stop-color="#36A1AC"/>
</linearGradient>
<linearGradient id="paint82_linear_5_11797" x1="49.5543" y1="0" x2="49.5543" y2="44.5215" gradientUnits="userSpaceOnUse">
<stop stop-color="#5AECDE"/>
<stop offset="1" stop-color="#36A1AC"/>
</linearGradient>
<linearGradient id="paint83_linear_5_11797" x1="49.5543" y1="0" x2="49.5543" y2="44.5215" gradientUnits="userSpaceOnUse">
<stop offset="0.105655" stop-color="#36A1AC"/>
<stop offset="1" stop-color="#5AECDE"/>
</linearGradient>
<linearGradient id="paint84_linear_5_11797" x1="418.548" y1="24.7764" x2="405.522" y2="47.3376" gradientUnits="userSpaceOnUse">
<stop stop-color="#24324F"/>
<stop offset="1" stop-color="#24324F" stop-opacity="0"/>
</linearGradient>
<radialGradient id="paint85_radial_5_11797" cx="0" cy="0" r="1" gradientUnits="userSpaceOnUse" gradientTransform="translate(432.344 36.6139) rotate(133.671) scale(7.40262 26.7746)">
<stop stop-color="white"/>
<stop offset="1" stop-color="white" stop-opacity="0"/>
</radialGradient>
<linearGradient id="paint86_linear_5_11797" x1="27.6694" y1="15.123" x2="26.9822" y2="64.9727" gradientUnits="userSpaceOnUse">
<stop stop-color="#00F5DD" stop-opacity="0"/>
<stop offset="1" stop-color="white"/>
</linearGradient>
<radialGradient id="paint87_radial_5_11797" cx="0" cy="0" r="1" gradientUnits="userSpaceOnUse" gradientTransform="translate(37.4276 74.1168) rotate(169.545) scale(40.7215 34.3889)">
<stop stop-color="white"/>
<stop offset="1" stop-color="white" stop-opacity="0"/>
</radialGradient>
</defs>
</svg>
