<svg width="88" height="48" viewBox="0 0 88 48" fill="none" xmlns="http://www.w3.org/2000/svg">
<path d="M73.229 15.3749L64.3797 35.379H61.4814L71.1809 13.4477C71.5287 12.6383 72.3402 12.1372 73.1904 12.1372C74.0792 12.1372 74.852 12.6383 75.1998 13.4477L84.8993 35.379H82.001L73.229 15.3749Z" fill="#F6F8FC"/>
<path d="M48.7674 14.6425H40.9229V12.1372H59.2397V14.6425H51.3952V35.379H48.7288L48.7674 14.6425Z" fill="#F6F8FC"/>
<path d="M11.2451 24.0256C11.2451 17.5117 16.7325 12 23.1859 12C29.678 12 35.0881 17.4732 35.0881 24.0256C35.0881 30.578 29.6394 36.0512 23.1859 36.0512C16.7711 36.0898 11.2451 30.578 11.2451 24.0256ZM32.4217 24.0256C32.4217 18.8608 28.2096 14.4668 23.1859 14.4668C18.1623 14.4668 13.9115 18.8608 13.9115 24.0256C13.9115 29.229 18.1623 33.623 23.1859 33.623C28.2096 33.623 32.4217 29.229 32.4217 24.0256Z" fill="#F6F8FC"/>
<path d="M0 12.5391H2.6664V35.7809H0V12.5391Z" fill="#F6F8FC"/>
</svg>
