<svg width="657" height="482" viewBox="0 0 657 482" fill="none" xmlns="http://www.w3.org/2000/svg">
<path d="M427.797 369.556C427.797 375.202 432.396 379.852 437.988 379.07C446.574 377.867 454.907 375.152 462.591 371.022C473.288 365.274 482.393 356.964 489.094 346.837C495.795 336.71 499.882 325.08 500.99 312.988C501.786 304.301 501.028 295.569 498.777 287.197C497.311 281.744 491.232 279.329 486.035 281.537C480.838 283.745 478.523 289.747 479.695 295.271C480.795 300.459 481.115 305.802 480.628 311.121C479.828 319.85 476.878 328.244 472.041 335.554C467.205 342.864 460.632 348.861 452.911 353.011C448.206 355.54 443.163 357.334 437.958 358.35C432.416 359.431 427.797 363.909 427.797 369.556Z" fill="#FFCA62"/>
<path d="M269.604 53.0779C269.604 47.393 264.973 42.7101 259.345 43.5089C250.783 44.7241 242.474 47.4547 234.81 51.6013C224.114 57.389 215.008 65.7547 208.307 75.9509C201.607 86.147 197.519 97.8558 196.411 110.031C195.615 118.777 196.374 127.569 198.625 135.999C200.088 141.478 206.197 143.906 211.412 141.675C216.591 139.46 218.9 133.478 217.728 127.968C216.61 122.714 216.283 117.3 216.773 111.91C217.573 103.122 220.523 94.6704 225.36 87.3108C230.197 79.9512 236.769 73.9128 244.49 69.7353C249.175 67.2002 254.195 65.3984 259.376 64.3734C264.953 63.2702 269.604 58.7628 269.604 53.0779Z" fill="#FFCA62"/>
<path d="M656.957 0.623764L512.172 0.623751C449.211 0.623746 398.172 51.6633 398.171 114.624C398.171 177.584 449.211 228.624 512.172 228.624L656.957 228.624L656.957 0.623764Z" fill="#666AF7"/>
<path d="M194.878 481.557C269.436 481.557 329.877 421.115 329.877 346.557V346.557C329.877 271.998 269.436 211.557 194.877 211.557V211.557C120.319 211.557 59.8775 271.998 59.8775 346.557V346.557C59.8775 421.115 120.319 481.557 194.878 481.557V481.557Z" fill="#FF7A59"/>
<path d="M382.795 335.376C387.409 338.156 393.351 335.386 394.156 330.061C396.181 316.671 397.015 306.062 397.143 292.246C397.193 286.848 391.751 283.16 386.747 285.187C373.964 290.364 364.355 294.905 352.56 301.424C347.83 304.038 347.298 310.599 351.549 313.935C361.941 322.088 370.719 328.1 382.795 335.376Z" fill="#93E3FB"/>
<path d="M280.516 143.856C281.787 141.654 281.032 138.839 278.831 137.568L270.652 132.846C268.451 131.575 265.636 132.33 264.365 134.531L259.643 142.71C258.372 144.911 259.126 147.726 261.327 148.997L269.506 153.719C271.708 154.99 274.523 154.236 275.794 152.035L280.516 143.856Z" fill="#FF6755"/>
<g filter="url(#filter0_f)">
<path d="M100.913 361.193L199.272 291.138L288.918 283.244L288.696 283.418L310.401 363.934C310.456 364.139 310.392 364.358 310.235 364.501L221.561 444.985L128.592 444.942C128.099 444.942 127.663 444.623 127.513 444.153L101.142 361.181L100.913 361.193Z" fill="#F85946"/>
</g>
<path d="M34.7221 249.054L96.8411 349.746C95.774 350.289 94.707 350.831 93.5986 351.232C92.4902 351.633 91.3818 352.035 90.2321 352.295C89.103 352.625 87.9326 352.815 86.7622 353.004C85.5918 353.193 84.4008 353.312 83.189 353.36C78.5745 353.562 73.8737 352.945 69.0866 351.511C64.2996 350.076 59.6088 347.924 55.0143 345.054C50.4197 342.183 46.0127 338.645 41.8636 334.418C37.7353 330.261 33.9562 325.466 30.6177 320.081C26.4216 313.339 23.3754 306.336 21.5116 299.447C19.5566 292.508 18.7841 285.682 19.1356 279.294C19.4665 272.836 20.9421 266.885 23.4833 261.696C26.1158 256.556 29.8843 252.157 34.7221 249.054Z" fill="#6493A8"/>
<path d="M34.7222 249.054L140.796 187.952L196.174 278.967L96.8412 349.746L34.7222 249.054Z" fill="url(#paint0_linear)"/>
<path d="M44.9811 251.646L138.266 197.89L186.383 276.929L98.9732 339.235L44.9811 251.646Z" fill="url(#paint1_linear)"/>
<path d="M53.9834 266.251L52.6904 264.153L145.128 209.163L146.409 211.267L53.9834 266.251Z" fill="black" fill-opacity="0.39"/>
<path d="M66.4177 286.422L65.1247 284.324L155.679 226.495L156.961 228.6L66.4177 286.422Z" fill="black" fill-opacity="0.39"/>
<path d="M78.4863 306L77.1913 303.9L165.384 242.436L166.668 244.545L78.4863 306Z" fill="black" fill-opacity="0.39"/>
<path d="M89.2688 323.492L87.9738 321.392L176.073 259.994L177.357 262.102L89.2688 323.492Z" fill="black" fill-opacity="0.39"/>
<path d="M96.8205 349.676L196.224 278.876L286.823 270.899L192.329 344.86L96.8205 349.676Z" fill="url(#paint2_linear)"/>
<path d="M121.57 341.05L198.847 286.003L262.716 280.41L189.594 337.613L121.57 341.05Z" fill="url(#paint3_linear)"/>
<path d="M189.604 337.688L250.246 290.194C225.992 292.926 206.706 277.035 180.871 287.971C155.509 298.693 152.436 327.186 134.848 340.383L189.604 337.688Z" fill="url(#paint4_linear)"/>
<path d="M202.369 288.96L203.292 292.667C204.329 296.678 200.706 301.837 194.229 304.923C186.772 308.501 178.352 308.034 175.426 303.82C175.05 303.281 174.77 302.654 174.616 302.014L173.693 298.307C173.848 298.947 174.15 299.519 174.503 300.113C177.43 304.327 185.85 304.793 193.306 301.215C199.783 298.129 203.384 293.025 202.369 288.96Z" fill="url(#paint5_linear)"/>
<path d="M182.733 286.106C190.189 282.528 198.609 282.994 201.536 287.209C204.463 291.423 200.791 297.714 193.284 301.27C185.827 304.848 177.407 304.381 174.48 300.167C171.553 295.953 175.276 289.683 182.733 286.106Z" fill="url(#paint6_linear)"/>
<path fill-rule="evenodd" clip-rule="evenodd" d="M193.017 300.715L193.02 300.713C196.691 298.974 199.378 296.587 200.791 294.175C202.202 291.767 202.316 289.411 201.03 287.56C199.72 285.673 197.107 284.541 193.798 284.35C190.508 284.161 186.642 284.913 182.999 286.661C179.352 288.411 176.664 290.799 175.243 293.21C173.826 295.617 173.702 297.967 174.986 299.816C176.297 301.703 178.909 302.835 182.219 303.026C185.508 303.215 189.374 302.463 193.017 300.715ZM201.536 287.209C198.609 282.994 190.189 282.528 182.733 286.106C175.276 289.683 171.553 295.953 174.48 300.167C177.407 304.381 185.827 304.848 193.284 301.27C200.791 297.714 204.463 291.423 201.536 287.209Z" fill="url(#paint7_linear)"/>
<path d="M184.612 288.8C189.445 286.507 196.055 286.579 197.911 289.328C199.79 292.022 196.289 296.304 191.456 298.596C186.623 300.889 179.948 300.824 178.069 298.13C176.139 295.414 179.779 291.092 184.612 288.8Z" fill="#C27025"/>
<path d="M184.858 289.273C189.549 287.048 195.965 287.117 197.767 289.785C199.591 292.401 196.193 296.557 191.501 298.782C186.81 301.008 180.331 300.944 178.507 298.329C176.634 295.693 180.166 291.498 184.858 289.273Z" fill="url(#paint8_linear)"/>
<path d="M218.105 303.649L219.027 307.356C220.064 311.367 216.441 316.526 209.965 319.612C202.508 323.19 194.088 322.723 191.161 318.509C190.785 317.97 190.506 317.343 190.351 316.703L189.428 312.996C189.583 313.636 189.885 314.208 190.238 314.802C193.165 319.016 201.585 319.482 209.042 315.904C215.518 312.818 219.119 307.714 218.105 303.649Z" fill="url(#paint9_linear)"/>
<path d="M198.468 300.795C205.925 297.217 214.345 297.683 217.272 301.898C220.198 306.112 216.527 312.402 209.019 315.959C201.562 319.537 193.142 319.07 190.216 314.856C187.289 310.642 191.011 304.372 198.468 300.795Z" fill="url(#paint10_linear)"/>
<path fill-rule="evenodd" clip-rule="evenodd" d="M208.753 315.404L208.755 315.402C212.426 313.663 215.113 311.276 216.527 308.863C217.937 306.456 218.051 304.1 216.766 302.249C215.455 300.362 212.843 299.23 209.533 299.039C206.243 298.849 202.378 299.602 198.735 301.35C195.088 303.1 192.399 305.488 190.979 307.899C189.561 310.306 189.437 312.656 190.722 314.505C192.032 316.392 194.644 317.524 197.954 317.715C201.244 317.904 205.11 317.152 208.753 315.404ZM217.272 301.898C214.345 297.683 205.925 297.217 198.468 300.795C191.011 304.372 187.289 310.642 190.216 314.856C193.142 319.07 201.562 319.537 209.019 315.959C216.527 312.402 220.198 306.112 217.272 301.898Z" fill="url(#paint11_linear)"/>
<path d="M200.347 303.489C205.181 301.196 211.79 301.268 213.646 304.017C215.525 306.711 212.025 310.993 207.191 313.285C202.358 315.578 195.684 315.513 193.805 312.818C191.875 310.103 195.514 305.781 200.347 303.489Z" fill="#C27025"/>
<path d="M200.593 303.961C205.285 301.736 211.7 301.805 213.502 304.474C215.326 307.089 211.928 311.245 207.236 313.471C202.545 315.696 196.066 315.633 194.242 313.017C192.369 310.382 195.902 306.187 200.593 303.961Z" fill="url(#paint12_linear)"/>
<path d="M248.728 296.441L249.651 300.148C250.688 304.159 247.065 309.318 240.588 312.404C233.132 315.982 224.712 315.516 221.785 311.301C221.409 310.762 221.13 310.135 220.975 309.496L220.052 305.788C220.207 306.428 220.509 307 220.862 307.594C223.789 311.808 232.209 312.274 239.666 308.697C246.142 305.61 249.743 300.506 248.728 296.441Z" fill="url(#paint13_linear)"/>
<path d="M229.092 293.588C236.549 290.01 244.969 290.476 247.895 294.69C250.822 298.905 247.151 305.195 239.643 308.752C232.186 312.33 223.766 311.863 220.839 307.649C217.913 303.435 221.635 297.165 229.092 293.588Z" fill="url(#paint14_linear)"/>
<path fill-rule="evenodd" clip-rule="evenodd" d="M239.376 308.197L239.379 308.195C243.05 306.456 245.737 304.069 247.151 301.656C248.561 299.249 248.675 296.893 247.389 295.042C246.079 293.155 243.467 292.023 240.157 291.832C236.867 291.642 233.001 292.395 229.358 294.143C225.711 295.893 223.023 298.281 221.603 300.692C220.185 303.099 220.061 305.449 221.345 307.298C222.656 309.185 225.268 310.317 228.578 310.508C231.868 310.697 235.733 309.944 239.376 308.197ZM247.895 294.69C244.969 290.476 236.549 290.01 229.092 293.588C221.635 297.165 217.913 303.435 220.839 307.649C223.766 311.863 232.186 312.33 239.643 308.752C247.151 305.195 250.822 298.905 247.895 294.69Z" fill="url(#paint15_linear)"/>
<path d="M230.971 296.281C235.804 293.989 242.414 294.06 244.27 296.809C246.149 299.504 242.648 303.785 237.815 306.078C232.982 308.371 226.308 308.305 224.429 305.611C222.498 302.896 226.138 298.574 230.971 296.281Z" fill="#C27025"/>
<path d="M231.217 296.755C235.908 294.529 242.324 294.599 244.126 297.267C245.95 299.882 242.552 304.038 237.86 306.264C233.169 308.489 226.69 308.426 224.866 305.811C222.993 303.175 226.525 298.98 231.217 296.755Z" fill="url(#paint16_linear)"/>
<path d="M204.25 321.016L205.173 324.724C206.21 328.734 202.587 333.893 196.11 336.98C188.653 340.557 180.233 340.091 177.307 335.877C176.931 335.338 176.651 334.711 176.497 334.071L175.574 330.364C175.729 331.003 176.031 331.576 176.384 332.169C179.311 336.383 187.731 336.85 195.187 333.272C201.664 330.186 205.265 325.081 204.25 321.016Z" fill="url(#paint17_linear)"/>
<path d="M184.614 318.163C192.07 314.585 200.491 315.052 203.417 319.266C206.344 323.48 202.672 329.771 195.165 333.327C187.708 336.905 179.288 336.439 176.361 332.224C173.435 328.01 177.157 321.741 184.614 318.163Z" fill="url(#paint18_linear)"/>
<path fill-rule="evenodd" clip-rule="evenodd" d="M194.898 332.772L194.901 332.771C198.572 331.032 201.259 328.644 202.672 326.232C204.083 323.824 204.197 321.468 202.911 319.617C201.601 317.73 198.988 316.598 195.679 316.407C192.389 316.218 188.523 316.97 184.88 318.718C181.233 320.468 178.545 322.856 177.124 325.268C175.707 327.674 175.583 330.024 176.867 331.873C178.178 333.76 180.79 334.892 184.1 335.083C187.389 335.272 191.255 334.52 194.898 332.772ZM203.417 319.266C200.491 315.052 192.07 314.585 184.614 318.163C177.157 321.741 173.435 328.01 176.361 332.224C179.288 336.439 187.708 336.905 195.165 333.327C202.672 329.771 206.344 323.48 203.417 319.266Z" fill="url(#paint19_linear)"/>
<path d="M186.493 320.857C191.326 318.564 197.936 318.636 199.792 321.385C201.671 324.079 198.17 328.361 193.337 330.653C188.504 332.946 181.829 332.881 179.95 330.186C178.02 327.471 181.66 323.149 186.493 320.857Z" fill="#C27025"/>
<path d="M186.739 321.33C191.43 319.104 197.846 319.174 199.648 321.842C201.472 324.457 198.074 328.613 193.382 330.839C188.69 333.064 182.212 333.001 180.388 330.386C178.515 327.75 182.047 323.555 186.739 321.33Z" fill="url(#paint20_linear)"/>
<path d="M188.751 299.201L189.674 302.908C190.711 306.919 187.088 312.077 180.611 315.164C173.155 318.742 164.735 318.275 161.808 314.061C161.432 313.522 161.153 312.895 160.998 312.255L160.075 308.548C160.23 309.187 160.532 309.76 160.885 310.353C163.812 314.568 172.232 315.034 179.689 311.456C186.165 308.37 189.766 303.266 188.751 299.201Z" fill="url(#paint21_linear)"/>
<path d="M169.115 296.347C176.572 292.769 184.992 293.236 187.918 297.45C190.845 301.664 187.174 307.955 179.666 311.512C172.209 315.089 163.789 314.623 160.862 310.409C157.936 306.194 161.658 299.925 169.115 296.347Z" fill="url(#paint22_linear)"/>
<path fill-rule="evenodd" clip-rule="evenodd" d="M179.399 310.956L179.402 310.955C183.073 309.216 185.76 306.829 187.174 304.416C188.584 302.009 188.698 299.652 187.412 297.801C186.102 295.914 183.49 294.782 180.18 294.592C176.89 294.402 173.024 295.155 169.381 296.903C165.735 298.652 163.046 301.04 161.626 303.452C160.208 305.858 160.084 308.208 161.368 310.057C162.679 311.944 165.291 313.076 168.601 313.267C171.891 313.457 175.756 312.704 179.399 310.956ZM187.918 297.45C184.992 293.236 176.572 292.769 169.115 296.347C161.658 299.925 157.936 306.194 160.862 310.409C163.789 314.623 172.209 315.089 179.666 311.512C187.174 307.955 190.845 301.664 187.918 297.45Z" fill="url(#paint23_linear)"/>
<path d="M170.994 299.041C175.827 296.748 182.437 296.82 184.293 299.569C186.172 302.264 182.672 306.545 177.838 308.838C173.005 311.131 166.331 311.065 164.452 308.371C162.522 305.655 166.161 301.334 170.994 299.041Z" fill="#C27025"/>
<path d="M171.24 299.514C175.932 297.289 182.347 297.358 184.149 300.027C185.973 302.642 182.575 306.798 177.883 309.023C173.192 311.249 166.713 311.186 164.889 308.57C163.016 305.934 166.548 301.74 171.24 299.514Z" fill="url(#paint24_linear)"/>
<path d="M194.714 308.889L195.636 312.596C196.674 316.606 193.05 321.765 186.574 324.852C179.117 328.429 170.697 327.963 167.77 323.749C167.394 323.21 167.115 322.583 166.96 321.943L166.037 318.236C166.192 318.875 166.494 319.448 166.847 320.041C169.774 324.256 178.194 324.722 185.651 321.144C192.127 318.058 195.728 312.954 194.714 308.889Z" fill="url(#paint25_linear)"/>
<path d="M175.077 306.035C182.534 302.457 190.954 302.924 193.881 307.138C196.807 311.352 193.136 317.643 185.628 321.199C178.172 324.777 169.751 324.311 166.825 320.096C163.898 315.882 167.621 309.613 175.077 306.035Z" fill="url(#paint26_linear)"/>
<path fill-rule="evenodd" clip-rule="evenodd" d="M185.362 320.644L185.364 320.643C189.035 318.904 191.722 316.516 193.136 314.104C194.546 311.696 194.66 309.34 193.375 307.489C192.064 305.602 189.452 304.47 186.142 304.279C182.853 304.09 178.987 304.842 175.344 306.59C171.697 308.34 169.008 310.728 167.588 313.14C166.171 315.546 166.047 317.896 167.331 319.745C168.641 321.632 171.254 322.764 174.563 322.955C177.853 323.144 181.719 322.392 185.362 320.644ZM193.881 307.138C190.954 302.924 182.534 302.457 175.077 306.035C167.621 309.613 163.898 315.882 166.825 320.096C169.751 324.311 178.172 324.777 185.628 321.199C193.136 317.643 196.807 311.352 193.881 307.138Z" fill="url(#paint27_linear)"/>
<path d="M176.956 308.729C181.79 306.436 188.399 306.508 190.256 309.257C192.135 311.951 188.634 316.233 183.801 318.526C178.967 320.818 172.293 320.753 170.414 318.059C168.484 315.343 172.123 311.022 176.956 308.729Z" fill="#C27025"/>
<path d="M177.202 309.202C181.894 306.976 188.309 307.046 190.111 309.714C191.935 312.33 188.537 316.486 183.846 318.711C179.154 320.937 172.675 320.873 170.852 318.258C168.978 315.622 172.511 311.427 177.202 309.202Z" fill="url(#paint28_linear)"/>
<path d="M236.921 303.232L237.844 306.939C238.881 310.95 235.258 316.109 228.781 319.195C221.324 322.773 212.904 322.307 209.978 318.092C209.602 317.553 209.322 316.926 209.167 316.287L208.245 312.579C208.399 313.219 208.702 313.791 209.055 314.385C211.982 318.599 220.402 319.065 227.858 315.488C234.335 312.401 237.936 307.297 236.921 303.232Z" fill="url(#paint29_linear)"/>
<path d="M217.285 300.378C224.741 296.8 233.161 297.267 236.088 301.481C239.015 305.695 235.343 311.986 227.835 315.542C220.379 319.12 211.959 318.654 209.032 314.44C206.105 310.225 209.828 303.956 217.285 300.378Z" fill="url(#paint30_linear)"/>
<path fill-rule="evenodd" clip-rule="evenodd" d="M227.569 314.987L227.572 314.986C231.243 313.247 233.93 310.86 235.343 308.447C236.754 306.04 236.868 303.683 235.582 301.832C234.272 299.945 231.659 298.813 228.35 298.622C225.06 298.433 221.194 299.186 217.551 300.933C213.904 302.683 211.216 305.071 209.795 307.483C208.378 309.889 208.254 312.239 209.538 314.088C210.848 315.975 213.461 317.107 216.77 317.298C220.06 317.488 223.926 316.735 227.569 314.987ZM236.088 301.481C233.161 297.267 224.741 296.8 217.285 300.378C209.828 303.956 206.105 310.225 209.032 314.44C211.959 318.654 220.379 319.12 227.835 315.542C235.343 311.986 239.015 305.695 236.088 301.481Z" fill="url(#paint31_linear)"/>
<path d="M219.164 303.072C223.997 300.779 230.606 300.851 232.463 303.6C234.342 306.294 230.841 310.576 226.008 312.869C221.175 315.161 214.5 315.096 212.621 312.402C210.691 309.686 214.33 305.365 219.164 303.072Z" fill="#C27025"/>
<path d="M219.41 303.545C224.101 301.32 230.517 301.389 232.319 304.057C234.143 306.673 230.744 310.829 226.053 313.054C221.361 315.28 214.883 315.216 213.059 312.601C211.185 309.965 214.718 305.77 219.41 303.545Z" fill="url(#paint32_linear)"/>
<path d="M169.034 323.395L169.957 327.102C170.994 331.113 167.371 336.272 160.894 339.358C153.438 342.936 145.017 342.469 142.091 338.255C141.715 337.716 141.435 337.089 141.281 336.45L140.358 332.742C140.513 333.382 140.815 333.954 141.168 334.548C144.095 338.762 152.515 339.228 159.971 335.651C166.448 332.564 170.049 327.46 169.034 323.395Z" fill="url(#paint33_linear)"/>
<path d="M149.398 320.541C156.854 316.963 165.274 317.43 168.201 321.644C171.128 325.858 167.456 332.149 159.949 335.705C152.492 339.283 144.072 338.817 141.145 334.602C138.218 330.388 141.941 324.119 149.398 320.541Z" fill="url(#paint34_linear)"/>
<path fill-rule="evenodd" clip-rule="evenodd" d="M159.682 335.15L159.685 335.149C163.356 333.41 166.043 331.022 167.456 328.61C168.867 326.202 168.981 323.846 167.695 321.995C166.385 320.108 163.772 318.976 160.463 318.785C157.173 318.596 153.307 319.348 149.664 321.096C146.017 322.846 143.329 325.234 141.908 327.646C140.491 330.052 140.367 332.402 141.651 334.251C142.962 336.138 145.574 337.27 148.884 337.461C152.173 337.65 156.039 336.898 159.682 335.15ZM168.201 321.644C165.274 317.43 156.854 316.963 149.398 320.541C141.941 324.119 138.218 330.388 141.145 334.602C144.072 338.817 152.492 339.283 159.949 335.705C167.456 332.149 171.128 325.858 168.201 321.644Z" fill="url(#paint35_linear)"/>
<path d="M151.277 323.235C156.11 320.942 162.72 321.014 164.576 323.763C166.455 326.457 162.954 330.739 158.121 333.032C153.288 335.324 146.613 335.259 144.734 332.565C142.804 329.849 146.444 325.528 151.277 323.235Z" fill="#C27025"/>
<path d="M151.523 323.708C156.214 321.483 162.63 321.552 164.432 324.221C166.256 326.836 162.858 330.992 158.166 333.217C153.475 335.443 146.996 335.38 145.172 332.764C143.299 330.128 146.831 325.934 151.523 323.708Z" fill="url(#paint36_linear)"/>
<path d="M186.777 334.261L187.7 337.968C188.737 341.979 185.113 347.138 178.637 350.224C171.18 353.802 162.76 353.336 159.834 349.121C159.458 348.582 159.178 347.955 159.023 347.316L158.101 343.608C158.255 344.248 158.557 344.82 158.911 345.414C161.837 349.628 170.257 350.094 177.714 346.517C184.191 343.43 187.791 338.326 186.777 334.261Z" fill="url(#paint37_linear)"/>
<path d="M167.141 331.408C174.597 327.83 183.017 328.296 185.944 332.51C188.871 336.725 185.199 343.015 177.691 346.572C170.235 350.15 161.815 349.683 158.888 345.469C155.961 341.255 159.684 334.985 167.141 331.408Z" fill="url(#paint38_linear)"/>
<path fill-rule="evenodd" clip-rule="evenodd" d="M177.425 346.017L177.428 346.015C181.099 344.276 183.786 341.889 185.199 339.476C186.61 337.069 186.724 334.713 185.438 332.862C184.128 330.975 181.515 329.843 178.206 329.652C174.916 329.462 171.05 330.215 167.407 331.963C163.76 333.713 161.072 336.101 159.651 338.512C158.234 340.919 158.11 343.269 159.394 345.118C160.704 347.005 163.317 348.137 166.626 348.327C169.916 348.517 173.782 347.764 177.425 346.017ZM185.944 332.51C183.017 328.296 174.597 327.83 167.141 331.408C159.684 334.985 155.961 341.255 158.888 345.469C161.815 349.683 170.235 350.15 177.691 346.572C185.199 343.015 188.871 336.725 185.944 332.51Z" fill="url(#paint39_linear)"/>
<path d="M169.02 334.102C173.853 331.809 180.463 331.88 182.319 334.629C184.198 337.324 180.697 341.605 175.864 343.898C171.031 346.191 164.356 346.126 162.477 343.431C160.547 340.716 164.187 336.394 169.02 334.102Z" fill="#C27025"/>
<path d="M169.266 334.575C173.957 332.349 180.373 332.419 182.175 335.087C183.999 337.703 180.601 341.859 175.909 344.084C171.217 346.31 164.739 346.246 162.915 343.631C161.042 340.995 164.574 336.8 169.266 334.575Z" fill="url(#paint40_linear)"/>
<path d="M229.422 285.787L228.958 289.579C228.491 293.695 223.262 297.217 216.11 297.782C207.867 298.456 200.171 295.008 198.946 290.026C198.788 289.388 198.751 288.702 198.835 288.05L199.3 284.257C199.215 284.91 199.293 285.553 199.41 286.233C200.636 291.216 208.332 294.663 216.575 293.99C223.727 293.425 228.915 289.946 229.422 285.787Z" fill="url(#paint41_linear)"/>
<path d="M212.106 276.098C220.349 275.425 228.045 278.872 229.271 283.854C230.496 288.837 224.817 293.398 216.534 294.033C208.291 294.707 200.595 291.259 199.37 286.277C198.144 281.294 203.863 276.771 212.106 276.098Z" fill="url(#paint42_linear)"/>
<path fill-rule="evenodd" clip-rule="evenodd" d="M216.484 293.419L216.487 293.419C220.537 293.108 223.9 291.84 226.083 290.093C228.262 288.35 229.211 286.19 228.673 284.002C228.124 281.771 226.089 279.779 223.067 278.417C220.063 277.063 216.184 276.383 212.156 276.712C208.125 277.041 204.76 278.309 202.571 280.053C200.387 281.793 199.43 283.944 199.968 286.13C200.517 288.36 202.551 290.352 205.573 291.714C208.578 293.068 212.457 293.748 216.484 293.419ZM229.271 283.854C228.045 278.872 220.349 275.425 212.106 276.098C203.863 276.771 198.144 281.294 199.37 286.277C200.595 291.259 208.291 294.707 216.534 294.033C224.817 293.398 230.496 288.837 229.271 283.854Z" fill="url(#paint43_linear)"/>
<path d="M212.898 279.286C218.231 278.874 224.378 281.305 225.128 284.536C225.919 287.725 221.118 290.471 215.784 290.882C210.451 291.294 204.241 288.846 203.45 285.658C202.619 282.431 207.564 279.698 212.898 279.286Z" fill="#C27025"/>
<path d="M212.958 279.815C218.135 279.416 224.101 281.775 224.829 284.912C225.597 288.007 220.937 290.672 215.76 291.072C210.583 291.472 204.556 289.095 203.788 286C202.981 282.869 207.781 280.215 212.958 279.815Z" fill="url(#paint44_linear)"/>
<path d="M204.243 295.987L204.77 299.771C205.379 303.869 201.232 308.617 194.466 311.004C186.674 313.776 178.35 312.425 175.884 307.925C175.567 307.35 175.355 306.697 175.268 306.044L174.741 302.26C174.828 302.913 175.068 303.514 175.357 304.141C177.823 308.641 186.147 309.992 193.939 307.22C200.705 304.833 204.823 300.137 204.243 295.987Z" fill="url(#paint45_linear)"/>
<path d="M185.017 291.08C192.809 288.308 201.133 289.659 203.599 294.158C206.065 298.657 201.751 304.526 193.911 307.272C186.118 310.044 177.794 308.692 175.328 304.193C172.862 299.694 177.224 293.852 185.017 291.08Z" fill="url(#paint46_linear)"/>
<path fill-rule="evenodd" clip-rule="evenodd" d="M193.704 306.691L193.707 306.69C197.541 305.348 200.464 303.257 202.124 301.007C203.78 298.762 204.142 296.43 203.059 294.454C201.955 292.44 199.476 291.039 196.205 290.5C192.954 289.965 189.03 290.306 185.223 291.66C181.412 293.016 178.487 295.107 176.82 297.356C175.157 299.599 174.786 301.923 175.868 303.897C176.972 305.912 179.451 307.313 182.722 307.851C185.974 308.387 189.897 308.045 193.704 306.691ZM203.599 294.158C201.133 289.659 192.809 288.308 185.017 291.08C177.224 293.852 172.862 299.694 175.328 304.193C177.794 308.692 186.118 310.044 193.911 307.272C201.751 304.526 206.065 298.657 203.599 294.158Z" fill="url(#paint47_linear)"/>
<path d="M186.602 293.957C191.65 292.187 198.215 292.954 199.771 295.884C201.356 298.761 197.423 302.65 192.375 304.421C187.327 306.191 180.697 305.423 179.112 302.545C177.479 299.642 181.554 295.728 186.602 293.957Z" fill="#C27025"/>
<path d="M186.796 294.453C191.696 292.735 198.069 293.48 199.579 296.324C201.117 299.117 197.3 302.891 192.4 304.61C187.5 306.329 181.065 305.583 179.527 302.79C177.941 299.971 181.896 296.172 186.796 294.453Z" fill="url(#paint48_linear)"/>
<path d="M171.721 310.457L173.673 313.742C175.821 317.284 173.837 323.268 168.524 328.089C162.414 333.663 154.217 335.641 150.2 332.449C149.685 332.041 149.237 331.521 148.904 330.953L146.952 327.669C147.285 328.236 147.739 328.698 148.248 329.164C152.265 332.357 160.462 330.378 166.573 324.804C171.886 319.983 173.863 314.058 171.721 310.457Z" fill="url(#paint49_linear)"/>
<path d="M152.095 313.381C158.205 307.807 166.403 305.828 170.419 309.021C174.436 312.213 172.732 319.295 166.567 324.863C160.457 330.437 152.259 332.416 148.242 329.223C144.226 326.031 145.985 318.955 152.095 313.381Z" fill="url(#paint50_linear)"/>
<path fill-rule="evenodd" clip-rule="evenodd" d="M166.152 324.408L166.154 324.406C169.168 321.684 171.054 318.624 171.712 315.906C172.37 313.195 171.8 310.905 170.036 309.503C168.237 308.074 165.41 307.742 162.185 308.513C158.98 309.278 155.495 311.113 152.51 313.836C149.522 316.562 147.635 319.623 146.97 322.342C146.305 325.054 146.864 327.341 148.626 328.741C150.424 330.171 153.252 330.502 156.476 329.732C159.681 328.966 163.166 327.132 166.152 324.408ZM170.419 309.021C166.403 305.828 158.205 307.807 152.095 313.381C145.985 318.955 144.226 326.031 148.242 329.223C152.259 332.416 160.457 330.437 166.567 324.863C172.732 319.295 174.436 312.213 170.419 309.021Z" fill="url(#paint51_linear)"/>
<path d="M154.671 315.419C158.639 311.831 164.989 309.996 167.559 312.094C170.134 314.133 168.015 319.242 164.047 322.829C160.079 326.417 153.669 328.277 151.093 326.238C148.463 324.194 150.703 319.007 154.671 315.419Z" fill="#C27025"/>
<path d="M155.042 315.801C158.894 312.319 165.057 310.537 167.552 312.574C170.052 314.553 167.995 319.512 164.143 322.994C160.291 326.477 154.069 328.282 151.569 326.303C149.016 324.318 151.19 319.284 155.042 315.801Z" fill="url(#paint52_linear)"/>
<path d="M126.41 340.854L189.465 337.571L262.113 280.883L264.36 288.471L192.378 344.957L128.361 348.103L126.41 340.854Z" fill="url(#paint53_linear)"/>
<path d="M192.323 344.859L218.75 434.359L124.793 434.315C124.295 434.315 123.854 433.992 123.703 433.518L97.0459 349.646L192.323 344.859Z" fill="url(#paint54_linear)"/>
<path fill-rule="evenodd" clip-rule="evenodd" d="M190.509 347.418L100.362 351.946L125.759 431.852L215.453 431.893L190.509 347.418ZM192.323 344.859L97.0459 349.646L123.703 433.518C123.854 433.992 124.295 434.315 124.793 434.315L218.75 434.359L192.323 344.859Z" fill="url(#paint55_linear)"/>
<path d="M132.411 423.254C132.163 423.254 131.942 423.093 131.867 422.856L111.889 359.925L183.823 356.282C184.087 356.268 184.326 356.438 184.401 356.691L203.818 422.638C203.926 423.005 203.651 423.372 203.269 423.371L132.411 423.254Z" fill="#456E81"/>
<path d="M134.761 420.222C134.512 420.222 134.292 420.061 134.217 419.824L115.082 359.771L183.823 356.282C184.087 356.268 184.326 356.438 184.401 356.691L203.132 420.288L134.761 420.222Z" fill="#6F4435"/>
<path fill-rule="evenodd" clip-rule="evenodd" d="M202.706 418.842L198.03 402.967L129.694 405.629L134.019 419.202L202.706 418.842ZM197.312 400.529L128.918 403.193L124.652 389.805L193.366 387.128L197.312 400.529ZM192.648 384.691L188.701 371.29L119.61 373.981L123.876 387.37L192.648 384.691ZM187.983 368.852L118.834 371.546L115.082 359.771L183.823 356.282C184.087 356.268 184.326 356.438 184.401 356.691L187.983 368.852Z" fill="url(#paint56_linear)"/>
<g style="mix-blend-mode:multiply" opacity="0.12">
<path d="M175.72 378.351C160.787 365.001 139.473 358.532 139.473 358.532L183.823 356.282C184.087 356.268 184.326 356.438 184.401 356.691L203.132 420.288C203.132 420.288 190.653 391.702 175.72 378.351Z" fill="#6C4334"/>
</g>
<path d="M79.2674 342.322C62.1014 341.522 45.1561 325.252 36.474 307.636C31.5596 297.655 29.3096 287.353 30.029 278.558C30.3449 274.403 31.3906 270.648 33.0458 267.404L79.2674 342.322Z" fill="#456E81"/>
<path d="M77.8182 339.968C61.8628 338.995 46.7932 322.935 38.5223 305.826C33.5219 295.473 29.9098 284.004 34.3296 269.416L77.8182 339.968Z" fill="#7C4E3D"/>
<path d="M192.323 344.859L218.75 434.358L308.366 353.019C308.525 352.875 308.59 352.654 308.534 352.446L286.59 271.041L192.323 344.859Z" fill="url(#paint57_linear)"/>
<path fill-rule="evenodd" clip-rule="evenodd" d="M218.75 434.358L308.366 353.019C308.525 352.875 308.59 352.654 308.534 352.446L286.59 271.041L192.323 344.859L218.75 434.358ZM285.18 275.275L195.16 345.767L220.001 429.895L305.854 351.971L285.18 275.275Z" fill="url(#paint58_linear)"/>
<path d="M205.298 348.614C205.113 348.759 205.035 349.002 205.102 349.227L224.145 413.522C224.265 413.926 224.766 414.066 225.078 413.783L257.92 383.98C258.083 383.833 258.146 383.606 258.085 383.396L240.209 322.34C240.095 321.952 239.626 321.801 239.308 322.05L205.298 348.614Z" fill="#456E81"/>
<path d="M205.298 348.614C205.113 348.758 205.035 349.002 205.102 349.227L223.38 410.899L254.41 382.664C254.572 382.517 254.635 382.29 254.574 382.08L237.424 323.505L205.298 348.614Z" fill="#6E4435"/>
<path d="M266.312 375.272C266.43 375.677 266.933 375.819 267.245 375.535L296.024 349.376C296.183 349.232 296.248 349.011 296.192 348.804L280.522 290.798C280.415 290.402 279.94 290.244 279.617 290.496L248.902 314.525C248.717 314.669 248.639 314.911 248.705 315.136L266.312 375.272Z" fill="#456E81"/>
<path d="M265.395 372.14L292.319 347.782C292.478 347.638 292.543 347.416 292.487 347.208L277.574 292.102L248.902 314.525C248.717 314.669 248.639 314.912 248.705 315.136L265.395 372.14Z" fill="#6E4435"/>
<path fill-rule="evenodd" clip-rule="evenodd" d="M292.319 347.782L265.395 372.14L261.557 359.031L289.201 335.066L292.487 347.208C292.543 347.416 292.478 347.638 292.319 347.782ZM288.665 333.085L260.986 357.081L256.873 343.035L285.104 319.928L288.665 333.085ZM251.84 325.843L256.309 341.109L284.575 317.973L280.669 303.54L251.84 325.843ZM251.282 323.938L248.705 315.136C248.639 314.912 248.717 314.669 248.902 314.525L277.574 292.102L280.146 301.608L251.282 323.938Z" fill="url(#paint59_linear)"/>
<path fill-rule="evenodd" clip-rule="evenodd" d="M240.087 332.599L237.424 323.505L205.298 348.614C205.113 348.758 205.035 349.002 205.102 349.227L207.618 357.718L240.087 332.599ZM208.182 359.619L213.163 376.425L245.233 350.175L240.644 334.504L208.182 359.619ZM213.732 378.347L245.797 352.102L250.034 366.574L218.377 394.018L213.732 378.347ZM218.953 395.964L223.38 410.899L254.41 382.664C254.572 382.517 254.635 382.29 254.574 382.08L250.605 368.525L218.953 395.964Z" fill="url(#paint60_linear)"/>
<g style="mix-blend-mode:multiply" opacity="0.12">
<path d="M204.991 348.853L221.651 405.068C221.651 405.068 218.904 384.482 223.991 365.275C229.079 346.069 241.176 336.313 241.176 336.313L237.424 323.505L204.991 348.853Z" fill="#6C4334"/>
</g>
<g style="mix-blend-mode:multiply" opacity="0.12">
<path d="M252.818 329.195C252.818 329.195 262.378 325.374 272.023 326.682C281.668 327.989 288.254 331.592 288.254 331.592L277.574 292.102L248.902 314.525C248.717 314.669 248.64 314.912 248.705 315.136L252.818 329.195Z" fill="#6C4334"/>
</g>
<path d="M161.101 195.813L164.87 198.579C169.083 201.524 168.747 209.807 164.541 217.55C159.716 226.489 151.16 231.896 145.209 229.822C144.447 229.558 143.819 229.116 143.101 228.614L139.641 226.106C140.289 226.56 140.638 226.719 141.463 227.051C147.414 229.124 156.122 223.472 160.947 214.533C165.153 206.79 165.044 199.119 161.101 195.813Z" fill="url(#paint61_linear)"/>
<path d="M139.531 207.157C144.356 198.218 153.058 192.601 159.009 194.675C164.959 196.748 165.854 205.649 160.963 214.604C156.138 223.543 147.436 229.159 141.485 227.086C135.535 225.012 134.706 216.095 139.531 207.157Z" fill="url(#paint62_linear)"/>
<path fill-rule="evenodd" clip-rule="evenodd" d="M160.298 214.245L160.299 214.241C162.691 209.863 163.637 205.551 163.299 202.133C162.962 198.723 161.373 196.3 158.76 195.389C156.095 194.46 152.682 195.222 149.256 197.422C145.851 199.609 142.554 203.149 140.196 207.516C137.837 211.888 136.89 216.202 137.22 219.623C137.55 223.037 139.123 225.462 141.734 226.372C144.399 227.3 147.812 226.538 151.238 224.338C154.643 222.151 157.94 218.612 160.298 214.245ZM159.009 194.675C153.058 192.601 144.356 198.218 139.531 207.157C134.706 216.095 135.535 225.012 141.485 227.086C147.436 229.159 156.138 223.543 160.963 214.604C165.854 205.649 164.959 196.748 159.009 194.675Z" fill="url(#paint63_linear)"/>
<path d="M143.343 208.476C146.49 202.708 153.108 198.007 156.937 199.397C160.75 200.718 160.363 207.499 157.217 213.267C154.071 219.035 147.392 223.79 143.58 222.47C139.702 221.165 140.197 214.244 143.343 208.476Z" fill="#C27025"/>
<path d="M143.929 208.769C146.983 203.17 153.407 198.607 157.124 199.957C160.825 201.238 160.45 207.821 157.396 213.419C154.341 219.018 147.859 223.633 144.159 222.352C140.394 221.086 140.875 214.368 143.929 208.769Z" fill="url(#paint64_linear)"/>
<path d="M231.441 244.048L230.717 248.667C230.039 253.762 222.528 257.271 213.718 257.096C203.561 256.92 194.826 251.808 193.932 245.57C193.816 244.772 193.921 244.011 194.036 243.142L194.672 238.916C194.568 239.701 194.587 240.083 194.671 240.969C195.566 247.207 204.588 252.342 214.745 252.517C223.555 252.692 230.317 249.07 231.441 244.048Z" fill="url(#paint65_linear)"/>
<path d="M211.45 230.107C221.607 230.282 230.595 235.428 231.49 241.666C232.384 247.904 224.891 252.791 214.69 252.564C204.533 252.389 195.545 247.243 194.65 241.005C193.756 234.767 201.294 229.932 211.45 230.107Z" fill="url(#paint66_linear)"/>
<path fill-rule="evenodd" clip-rule="evenodd" d="M214.703 251.808L214.706 251.808C219.694 251.919 223.958 250.776 226.838 248.905C229.712 247.038 231.133 244.513 230.741 241.774C230.34 238.981 228.095 236.3 224.566 234.269C221.058 232.25 216.399 230.949 211.437 230.864C206.47 230.778 202.204 231.92 199.317 233.786C196.436 235.649 195.007 238.161 195.399 240.898C195.8 243.691 198.045 246.371 201.574 248.402C205.082 250.421 209.741 251.722 214.703 251.808ZM231.49 241.666C230.595 235.428 221.607 230.282 211.45 230.107C201.294 229.932 193.756 234.767 194.65 241.005C195.545 247.243 204.533 252.389 214.69 252.564C224.891 252.791 232.384 247.904 231.49 241.666Z" fill="url(#paint67_linear)"/>
<path d="M212.031 234.099C218.6 234.242 225.818 237.958 226.343 241.998C226.923 245.991 220.723 248.765 214.154 248.623C207.586 248.48 200.293 244.736 199.713 240.743C199.088 236.699 205.462 233.957 212.031 234.099Z" fill="#C27025"/>
<path d="M212.04 234.754C218.416 234.892 225.422 238.499 225.932 242.421C226.496 246.296 220.477 248.99 214.101 248.851C207.725 248.713 200.647 245.078 200.083 241.203C199.477 237.277 205.664 234.616 212.04 234.754Z" fill="url(#paint68_linear)"/>
<g style="mix-blend-mode:multiply" filter="url(#filter1_f)">
<path d="M656.956 66.4536C602.192 118.692 503.869 175.037 437.182 200.489C456.425 217.309 481.373 227.765 508.742 228.573C560.067 203.58 614.334 169.398 656.956 133.503L656.956 66.4536Z" fill="#AEAEB0"/>
</g>
<path d="M317.091 164.958L320.86 167.724C325.073 170.668 324.736 178.952 320.53 186.695C315.705 195.634 307.15 201.041 301.199 198.967C300.437 198.703 299.809 198.261 299.09 197.758L295.63 195.251C296.279 195.704 296.627 195.864 297.452 196.195C303.403 198.269 312.111 192.617 316.936 183.678C321.142 175.935 321.034 168.264 317.091 164.958Z" fill="url(#paint69_linear)"/>
<path d="M295.52 176.301C300.345 167.363 309.048 161.746 314.998 163.819C320.949 165.893 321.844 174.794 316.953 183.749C312.128 192.688 303.426 198.304 297.475 196.231C291.524 194.157 290.695 185.24 295.52 176.301Z" fill="url(#paint70_linear)"/>
<path fill-rule="evenodd" clip-rule="evenodd" d="M316.287 183.389L316.289 183.386C318.68 179.008 319.626 174.696 319.288 171.278C318.951 167.868 317.363 165.444 314.749 164.534C312.085 163.605 308.672 164.367 305.246 166.567C301.841 168.754 298.543 172.294 296.186 176.661C293.826 181.033 292.88 185.346 293.21 188.768C293.539 192.182 295.113 194.607 297.724 195.516C300.388 196.445 303.801 195.683 307.227 193.483C310.633 191.296 313.93 187.757 316.287 183.389ZM314.998 163.819C309.048 161.746 300.345 167.363 295.52 176.301C290.695 185.24 291.524 194.157 297.475 196.231C303.426 198.304 312.128 192.688 316.953 183.749C321.844 174.794 320.949 165.893 314.998 163.819Z" fill="url(#paint71_linear)"/>
<path d="M299.333 177.621C302.479 171.853 309.098 167.152 312.927 168.542C316.74 169.862 316.353 176.644 313.207 182.412C310.06 188.18 303.382 192.935 299.57 191.614C295.691 190.31 296.187 183.389 299.333 177.621Z" fill="#C27025"/>
<path d="M299.918 177.914C302.973 172.315 309.397 167.751 313.114 169.101C316.814 170.383 316.439 176.966 313.385 182.564C310.331 188.163 303.849 192.778 300.148 191.497C296.384 190.231 296.864 183.512 299.918 177.914Z" fill="url(#paint72_linear)"/>
<path d="M656.956 64.9223C587.254 118.293 456.709 170.736 391.312 180.407C390.052 176.032 388.755 172.408 387.445 169.814C386.943 168.831 386.752 167.862 386.591 167.007C386.589 166.964 386.583 166.922 386.575 166.879C385.379 161.498 385.977 152.475 387.227 145.571C388.369 139.157 381.411 138.831 377.878 143.452C374.338 148.107 373.35 157.48 373.758 163.229C373.441 163.218 373.121 163.207 372.797 163.197C371.276 153.95 370.592 142.197 370.921 139.429C371.627 134.266 366.083 131.928 362.115 136.548C357.422 141.992 358.604 155.783 360.134 163.227C359.865 163.237 359.596 163.248 359.327 163.26C355.995 153.434 354.186 141.573 354.233 137.309C354.288 130.895 347.33 128.504 343.036 137.038C339.521 143.984 342.837 157.894 345.167 164.7C344.731 164.781 344.302 164.865 343.88 164.953C341.593 158.833 336.74 149.51 330.1 148.67C321.511 147.583 311.619 156.279 309.825 160.03C308.031 163.78 312.815 167.911 317.544 166.172C319.772 165.357 321.892 164.215 323.305 163.346C325.642 161.932 328.197 163.02 329.447 164.868L329.484 164.92C330.721 166.694 331.902 168.389 332.763 172.695C332.776 172.762 332.789 172.829 332.804 172.895C332.808 172.918 332.813 172.942 332.817 172.967C334.944 184.326 337.318 199.547 330.492 204.599C328.214 205.847 326.158 206.542 324.229 205.96C320.573 204.866 317.847 202.763 315.414 200.886C312.893 198.94 310.686 197.238 308.086 197.155C302.433 196.992 300.15 201.014 304.063 208.297C309.665 218.693 327.382 230.636 351.874 234.343C352.326 234.439 352.786 234.526 353.255 234.606C415.343 245.11 563.264 191.55 656.956 126.448V64.9223Z" fill="url(#paint73_linear)"/>
<g opacity="0.46">
<path d="M656.956 118.25C564.198 185.002 415.783 241.08 353.246 231.326C352.776 231.252 352.315 231.171 351.862 231.081C327.325 227.689 309.455 215.975 303.72 205.652C302.972 204.301 302.441 203.061 302.11 201.938C302.095 203.641 302.707 205.773 304.063 208.298C309.665 218.693 327.382 230.636 351.874 234.343C352.326 234.439 352.786 234.526 353.255 234.606C415.343 245.11 563.264 191.55 656.956 126.448V118.25Z" fill="#24C2B9"/>
<path d="M332.241 170.51C332.252 170.488 332.263 170.467 332.274 170.446C332.285 170.426 332.296 170.406 332.307 170.386C331.397 166.756 330.203 164.984 329.022 163.355C327.737 161.528 325.144 160.477 322.802 161.917C321.387 162.803 319.261 163.969 317.022 164.811C314.048 165.935 311.023 164.766 309.608 162.811C310.414 165.476 313.994 167.478 317.543 166.172C319.772 165.357 321.892 164.215 323.305 163.346C325.642 161.932 328.197 163.02 329.447 164.868L329.484 164.92C330.486 166.358 331.452 167.744 332.241 170.51Z" fill="#24C2B9"/>
<path d="M347.373 164.277C346.616 164.39 345.872 164.511 345.147 164.641C342.818 157.813 339.531 143.964 343.036 137.038L343.075 136.962C341.081 145.512 345.35 159.57 347.373 164.277Z" fill="#24C2B9"/>
<path d="M360.117 163.144C360.769 163.117 361.42 163.093 362.067 163.072C360.567 156.859 358.893 143.406 362.104 136.561C357.441 141.993 358.597 155.686 360.117 163.144Z" fill="#24C2B9"/>
<path d="M375.315 163.117C374.806 163.097 374.283 163.079 373.746 163.063C373.369 157.301 374.372 148.063 377.878 143.452C378.7 142.377 379.707 141.569 380.755 141.044C380.104 141.526 379.494 142.133 378.967 142.861C375.492 147.69 374.73 157.517 375.315 163.117Z" fill="#24C2B9"/>
</g>
<defs>
<filter id="filter0_f" x="89.9133" y="272.244" width="231.507" height="183.741" filterUnits="userSpaceOnUse" color-interpolation-filters="sRGB">
<feFlood flood-opacity="0" result="BackgroundImageFix"/>
<feBlend mode="normal" in="SourceGraphic" in2="BackgroundImageFix" result="shape"/>
<feGaussianBlur stdDeviation="5.5" result="effect1_foregroundBlur"/>
</filter>
<filter id="filter1_f" x="417.182" y="46.4536" width="259.775" height="202.12" filterUnits="userSpaceOnUse" color-interpolation-filters="sRGB">
<feFlood flood-opacity="0" result="BackgroundImageFix"/>
<feBlend mode="normal" in="SourceGraphic" in2="BackgroundImageFix" result="shape"/>
<feGaussianBlur stdDeviation="10" result="effect1_foregroundBlur"/>
</filter>
<linearGradient id="paint0_linear" x1="120.344" y1="254.825" x2="178.653" y2="336.717" gradientUnits="userSpaceOnUse">
<stop stop-color="#B5CFDA"/>
<stop offset="1" stop-color="#6695AA"/>
</linearGradient>
<linearGradient id="paint1_linear" x1="99.5603" y1="209.223" x2="134.574" y2="328.811" gradientUnits="userSpaceOnUse">
<stop stop-color="#39221A"/>
<stop offset="1" stop-color="#4E2F24"/>
</linearGradient>
<linearGradient id="paint2_linear" x1="178.993" y1="271.412" x2="201.376" y2="342.207" gradientUnits="userSpaceOnUse">
<stop stop-color="#A9CAD7"/>
<stop offset="1" stop-color="#B7D0DA"/>
</linearGradient>
<linearGradient id="paint3_linear" x1="186.004" y1="289.763" x2="195.053" y2="320.669" gradientUnits="userSpaceOnUse">
<stop stop-color="#8BB4C4"/>
<stop offset="1" stop-color="#456E81"/>
</linearGradient>
<linearGradient id="paint4_linear" x1="184.162" y1="286.651" x2="198.355" y2="335.126" gradientUnits="userSpaceOnUse">
<stop stop-color="#FCD537"/>
<stop offset="1" stop-color="#FBB02F"/>
</linearGradient>
<linearGradient id="paint5_linear" x1="176.374" y1="291.808" x2="200.803" y2="301.885" gradientUnits="userSpaceOnUse">
<stop stop-color="#E7A222"/>
<stop offset="1" stop-color="#BC4B16"/>
</linearGradient>
<linearGradient id="paint6_linear" x1="174.438" y1="295.034" x2="199.629" y2="299.312" gradientUnits="userSpaceOnUse">
<stop stop-color="#FCD938"/>
<stop offset="1" stop-color="#FBAE2C"/>
</linearGradient>
<linearGradient id="paint7_linear" x1="189.989" y1="301.231" x2="188.378" y2="297.698" gradientUnits="userSpaceOnUse">
<stop stop-color="white" stop-opacity="0.63"/>
<stop offset="1" stop-color="white" stop-opacity="0"/>
</linearGradient>
<linearGradient id="paint8_linear" x1="180.809" y1="290.974" x2="195.539" y2="297.05" gradientUnits="userSpaceOnUse">
<stop stop-color="#FFC564"/>
<stop offset="1" stop-color="#FFED9D"/>
</linearGradient>
<linearGradient id="paint9_linear" x1="192.109" y1="306.497" x2="216.539" y2="316.574" gradientUnits="userSpaceOnUse">
<stop stop-color="#E7A222"/>
<stop offset="1" stop-color="#BC4B16"/>
</linearGradient>
<linearGradient id="paint10_linear" x1="190.173" y1="309.723" x2="215.364" y2="314.001" gradientUnits="userSpaceOnUse">
<stop stop-color="#FCD938"/>
<stop offset="1" stop-color="#FBAE2C"/>
</linearGradient>
<linearGradient id="paint11_linear" x1="205.724" y1="315.92" x2="204.113" y2="312.387" gradientUnits="userSpaceOnUse">
<stop stop-color="white" stop-opacity="0.63"/>
<stop offset="1" stop-color="white" stop-opacity="0"/>
</linearGradient>
<linearGradient id="paint12_linear" x1="196.544" y1="305.662" x2="211.274" y2="311.738" gradientUnits="userSpaceOnUse">
<stop stop-color="#FFC564"/>
<stop offset="1" stop-color="#FFED9D"/>
</linearGradient>
<linearGradient id="paint13_linear" x1="222.733" y1="299.289" x2="247.163" y2="309.366" gradientUnits="userSpaceOnUse">
<stop stop-color="#E7A222"/>
<stop offset="1" stop-color="#BC4B16"/>
</linearGradient>
<linearGradient id="paint14_linear" x1="220.797" y1="302.516" x2="245.988" y2="306.794" gradientUnits="userSpaceOnUse">
<stop stop-color="#FCD938"/>
<stop offset="1" stop-color="#FBAE2C"/>
</linearGradient>
<linearGradient id="paint15_linear" x1="236.348" y1="308.713" x2="234.737" y2="305.179" gradientUnits="userSpaceOnUse">
<stop stop-color="white" stop-opacity="0.63"/>
<stop offset="1" stop-color="white" stop-opacity="0"/>
</linearGradient>
<linearGradient id="paint16_linear" x1="227.168" y1="298.455" x2="241.898" y2="304.532" gradientUnits="userSpaceOnUse">
<stop stop-color="#FFC564"/>
<stop offset="1" stop-color="#FFED9D"/>
</linearGradient>
<linearGradient id="paint17_linear" x1="178.255" y1="323.864" x2="202.684" y2="333.942" gradientUnits="userSpaceOnUse">
<stop stop-color="#E7A222"/>
<stop offset="1" stop-color="#BC4B16"/>
</linearGradient>
<linearGradient id="paint18_linear" x1="176.319" y1="327.091" x2="201.51" y2="331.37" gradientUnits="userSpaceOnUse">
<stop stop-color="#FCD938"/>
<stop offset="1" stop-color="#FBAE2C"/>
</linearGradient>
<linearGradient id="paint19_linear" x1="191.87" y1="333.288" x2="190.259" y2="329.755" gradientUnits="userSpaceOnUse">
<stop stop-color="white" stop-opacity="0.63"/>
<stop offset="1" stop-color="white" stop-opacity="0"/>
</linearGradient>
<linearGradient id="paint20_linear" x1="182.69" y1="323.031" x2="197.419" y2="329.107" gradientUnits="userSpaceOnUse">
<stop stop-color="#FFC564"/>
<stop offset="1" stop-color="#FFED9D"/>
</linearGradient>
<linearGradient id="paint21_linear" x1="162.756" y1="302.049" x2="187.186" y2="312.126" gradientUnits="userSpaceOnUse">
<stop stop-color="#E7A222"/>
<stop offset="1" stop-color="#BC4B16"/>
</linearGradient>
<linearGradient id="paint22_linear" x1="160.82" y1="305.275" x2="186.011" y2="309.554" gradientUnits="userSpaceOnUse">
<stop stop-color="#FCD938"/>
<stop offset="1" stop-color="#FBAE2C"/>
</linearGradient>
<linearGradient id="paint23_linear" x1="176.371" y1="311.472" x2="174.76" y2="307.939" gradientUnits="userSpaceOnUse">
<stop stop-color="white" stop-opacity="0.63"/>
<stop offset="1" stop-color="white" stop-opacity="0"/>
</linearGradient>
<linearGradient id="paint24_linear" x1="167.191" y1="301.215" x2="181.921" y2="307.291" gradientUnits="userSpaceOnUse">
<stop stop-color="#FFC564"/>
<stop offset="1" stop-color="#FFED9D"/>
</linearGradient>
<linearGradient id="paint25_linear" x1="168.718" y1="311.736" x2="193.148" y2="321.814" gradientUnits="userSpaceOnUse">
<stop stop-color="#E7A222"/>
<stop offset="1" stop-color="#BC4B16"/>
</linearGradient>
<linearGradient id="paint26_linear" x1="166.783" y1="314.963" x2="191.974" y2="319.241" gradientUnits="userSpaceOnUse">
<stop stop-color="#FCD938"/>
<stop offset="1" stop-color="#FBAE2C"/>
</linearGradient>
<linearGradient id="paint27_linear" x1="182.333" y1="321.16" x2="180.723" y2="317.627" gradientUnits="userSpaceOnUse">
<stop stop-color="white" stop-opacity="0.63"/>
<stop offset="1" stop-color="white" stop-opacity="0"/>
</linearGradient>
<linearGradient id="paint28_linear" x1="173.153" y1="310.903" x2="187.883" y2="316.979" gradientUnits="userSpaceOnUse">
<stop stop-color="#FFC564"/>
<stop offset="1" stop-color="#FFED9D"/>
</linearGradient>
<linearGradient id="paint29_linear" x1="210.926" y1="306.08" x2="235.355" y2="316.157" gradientUnits="userSpaceOnUse">
<stop stop-color="#E7A222"/>
<stop offset="1" stop-color="#BC4B16"/>
</linearGradient>
<linearGradient id="paint30_linear" x1="208.99" y1="309.306" x2="234.181" y2="313.585" gradientUnits="userSpaceOnUse">
<stop stop-color="#FCD938"/>
<stop offset="1" stop-color="#FBAE2C"/>
</linearGradient>
<linearGradient id="paint31_linear" x1="224.541" y1="315.503" x2="222.93" y2="311.97" gradientUnits="userSpaceOnUse">
<stop stop-color="white" stop-opacity="0.63"/>
<stop offset="1" stop-color="white" stop-opacity="0"/>
</linearGradient>
<linearGradient id="paint32_linear" x1="215.36" y1="305.246" x2="230.09" y2="311.322" gradientUnits="userSpaceOnUse">
<stop stop-color="#FFC564"/>
<stop offset="1" stop-color="#FFED9D"/>
</linearGradient>
<linearGradient id="paint33_linear" x1="143.039" y1="326.243" x2="167.469" y2="336.32" gradientUnits="userSpaceOnUse">
<stop stop-color="#E7A222"/>
<stop offset="1" stop-color="#BC4B16"/>
</linearGradient>
<linearGradient id="paint34_linear" x1="141.103" y1="329.469" x2="166.294" y2="333.747" gradientUnits="userSpaceOnUse">
<stop stop-color="#FCD938"/>
<stop offset="1" stop-color="#FBAE2C"/>
</linearGradient>
<linearGradient id="paint35_linear" x1="156.654" y1="335.666" x2="155.043" y2="332.133" gradientUnits="userSpaceOnUse">
<stop stop-color="white" stop-opacity="0.63"/>
<stop offset="1" stop-color="white" stop-opacity="0"/>
</linearGradient>
<linearGradient id="paint36_linear" x1="147.474" y1="325.409" x2="162.203" y2="331.485" gradientUnits="userSpaceOnUse">
<stop stop-color="#FFC564"/>
<stop offset="1" stop-color="#FFED9D"/>
</linearGradient>
<linearGradient id="paint37_linear" x1="160.781" y1="337.109" x2="185.211" y2="347.186" gradientUnits="userSpaceOnUse">
<stop stop-color="#E7A222"/>
<stop offset="1" stop-color="#BC4B16"/>
</linearGradient>
<linearGradient id="paint38_linear" x1="158.846" y1="340.336" x2="184.037" y2="344.614" gradientUnits="userSpaceOnUse">
<stop stop-color="#FCD938"/>
<stop offset="1" stop-color="#FBAE2C"/>
</linearGradient>
<linearGradient id="paint39_linear" x1="174.397" y1="346.533" x2="172.786" y2="342.999" gradientUnits="userSpaceOnUse">
<stop stop-color="white" stop-opacity="0.63"/>
<stop offset="1" stop-color="white" stop-opacity="0"/>
</linearGradient>
<linearGradient id="paint40_linear" x1="165.216" y1="336.276" x2="179.946" y2="342.352" gradientUnits="userSpaceOnUse">
<stop stop-color="#FFC564"/>
<stop offset="1" stop-color="#FFED9D"/>
</linearGradient>
<linearGradient id="paint41_linear" x1="204.128" y1="279.147" x2="223.336" y2="297.297" gradientUnits="userSpaceOnUse">
<stop stop-color="#E7A222"/>
<stop offset="1" stop-color="#BC4B16"/>
</linearGradient>
<linearGradient id="paint42_linear" x1="201.167" y1="281.468" x2="223.16" y2="294.475" gradientUnits="userSpaceOnUse">
<stop stop-color="#FCD938"/>
<stop offset="1" stop-color="#FBAE2C"/>
</linearGradient>
<linearGradient id="paint43_linear" x1="213.471" y1="292.818" x2="213.231" y2="288.942" gradientUnits="userSpaceOnUse">
<stop stop-color="white" stop-opacity="0.63"/>
<stop offset="1" stop-color="white" stop-opacity="0"/>
</linearGradient>
<linearGradient id="paint44_linear" x1="208.568" y1="279.955" x2="220.15" y2="290.899" gradientUnits="userSpaceOnUse">
<stop stop-color="#FFC564"/>
<stop offset="1" stop-color="#FFED9D"/>
</linearGradient>
<linearGradient id="paint45_linear" x1="178.092" y1="296.08" x2="201.324" y2="308.676" gradientUnits="userSpaceOnUse">
<stop stop-color="#E7A222"/>
<stop offset="1" stop-color="#BC4B16"/>
</linearGradient>
<linearGradient id="paint46_linear" x1="175.827" y1="299.084" x2="200.427" y2="305.993" gradientUnits="userSpaceOnUse">
<stop stop-color="#FCD938"/>
<stop offset="1" stop-color="#FBAE2C"/>
</linearGradient>
<linearGradient id="paint47_linear" x1="190.638" y1="306.885" x2="189.409" y2="303.202" gradientUnits="userSpaceOnUse">
<stop stop-color="white" stop-opacity="0.63"/>
<stop offset="1" stop-color="white" stop-opacity="0"/>
</linearGradient>
<linearGradient id="paint48_linear" x1="182.59" y1="295.718" x2="196.598" y2="303.313" gradientUnits="userSpaceOnUse">
<stop stop-color="#FFC564"/>
<stop offset="1" stop-color="#FFED9D"/>
</linearGradient>
<linearGradient id="paint49_linear" x1="147.648" y1="320.672" x2="173.945" y2="323.286" gradientUnits="userSpaceOnUse">
<stop stop-color="#E7A222"/>
<stop offset="1" stop-color="#BC4B16"/>
</linearGradient>
<linearGradient id="paint50_linear" x1="146.723" y1="324.32" x2="172.079" y2="321.161" gradientUnits="userSpaceOnUse">
<stop stop-color="#FCD938"/>
<stop offset="1" stop-color="#FBAE2C"/>
</linearGradient>
<linearGradient id="paint51_linear" x1="163.4" y1="325.775" x2="160.84" y2="322.855" gradientUnits="userSpaceOnUse">
<stop stop-color="white" stop-opacity="0.63"/>
<stop offset="1" stop-color="white" stop-opacity="0"/>
</linearGradient>
<linearGradient id="paint52_linear" x1="151.654" y1="318.597" x2="167.51" y2="320.172" gradientUnits="userSpaceOnUse">
<stop stop-color="#FFC564"/>
<stop offset="1" stop-color="#FFED9D"/>
</linearGradient>
<linearGradient id="paint53_linear" x1="188.234" y1="294.091" x2="203.238" y2="341.778" gradientUnits="userSpaceOnUse">
<stop stop-color="#A9CAD7"/>
<stop offset="1" stop-color="#B7D0DA"/>
</linearGradient>
<linearGradient id="paint54_linear" x1="189.779" y1="347.482" x2="128.533" y2="434.92" gradientUnits="userSpaceOnUse">
<stop stop-color="#83AFC3"/>
<stop offset="1" stop-color="#518298"/>
</linearGradient>
<linearGradient id="paint55_linear" x1="193.068" y1="345.449" x2="177.838" y2="361.255" gradientUnits="userSpaceOnUse">
<stop stop-color="#FEFFFF"/>
<stop offset="1" stop-color="#FEFFFF" stop-opacity="0"/>
</linearGradient>
<linearGradient id="paint56_linear" x1="120.963" y1="360.608" x2="198.388" y2="421.92" gradientUnits="userSpaceOnUse">
<stop stop-color="#8F5B48"/>
<stop offset="1" stop-color="#7C4E3D"/>
</linearGradient>
<linearGradient id="paint57_linear" x1="285.07" y1="277.449" x2="219.091" y2="432.912" gradientUnits="userSpaceOnUse">
<stop stop-color="#80ACC0"/>
<stop offset="1" stop-color="#CBD9E0"/>
</linearGradient>
<linearGradient id="paint58_linear" x1="191.914" y1="347.56" x2="237.323" y2="357.314" gradientUnits="userSpaceOnUse">
<stop stop-color="white" stop-opacity="0.77"/>
<stop offset="1" stop-color="white" stop-opacity="0"/>
</linearGradient>
<linearGradient id="paint59_linear" x1="261.173" y1="296.904" x2="281.795" y2="367.338" gradientUnits="userSpaceOnUse">
<stop stop-color="#B57550"/>
<stop offset="1" stop-color="#845543"/>
</linearGradient>
<linearGradient id="paint60_linear" x1="219.071" y1="328.879" x2="241.529" y2="405.585" gradientUnits="userSpaceOnUse">
<stop stop-color="#B57550"/>
<stop offset="1" stop-color="#845543"/>
</linearGradient>
<linearGradient id="paint61_linear" x1="137.33" y1="217.413" x2="168.878" y2="209.784" gradientUnits="userSpaceOnUse">
<stop stop-color="#E7A222"/>
<stop offset="1" stop-color="#BC4B16"/>
</linearGradient>
<linearGradient id="paint62_linear" x1="137.737" y1="222.017" x2="165.854" y2="208.077" gradientUnits="userSpaceOnUse">
<stop stop-color="#FCD938"/>
<stop offset="1" stop-color="#FBAE2C"/>
</linearGradient>
<linearGradient id="paint63_linear" x1="157.661" y1="216.944" x2="153.51" y2="214.597" gradientUnits="userSpaceOnUse">
<stop stop-color="white" stop-opacity="0.63"/>
<stop offset="1" stop-color="white" stop-opacity="0"/>
</linearGradient>
<linearGradient id="paint64_linear" x1="141.134" y1="213.383" x2="160.156" y2="208.783" gradientUnits="userSpaceOnUse">
<stop stop-color="#FFC564"/>
<stop offset="1" stop-color="#FFED9D"/>
</linearGradient>
<linearGradient id="paint65_linear" x1="201.33" y1="232.868" x2="222.608" y2="257.378" gradientUnits="userSpaceOnUse">
<stop stop-color="#E7A222"/>
<stop offset="1" stop-color="#BC4B16"/>
</linearGradient>
<linearGradient id="paint66_linear" x1="197.429" y1="235.346" x2="222.734" y2="253.907" gradientUnits="userSpaceOnUse">
<stop stop-color="#FCD938"/>
<stop offset="1" stop-color="#FBAE2C"/>
</linearGradient>
<linearGradient id="paint67_linear" x1="211.093" y1="250.708" x2="211.269" y2="245.942" gradientUnits="userSpaceOnUse">
<stop stop-color="white" stop-opacity="0.63"/>
<stop offset="1" stop-color="white" stop-opacity="0"/>
</linearGradient>
<linearGradient id="paint68_linear" x1="206.658" y1="234.393" x2="219.488" y2="249.171" gradientUnits="userSpaceOnUse">
<stop stop-color="#FFC564"/>
<stop offset="1" stop-color="#FFED9D"/>
</linearGradient>
<linearGradient id="paint69_linear" x1="293.32" y1="186.558" x2="324.868" y2="178.929" gradientUnits="userSpaceOnUse">
<stop stop-color="#E7A222"/>
<stop offset="1" stop-color="#BC4B16"/>
</linearGradient>
<linearGradient id="paint70_linear" x1="293.726" y1="191.161" x2="321.844" y2="177.222" gradientUnits="userSpaceOnUse">
<stop stop-color="#FCD938"/>
<stop offset="1" stop-color="#FBAE2C"/>
</linearGradient>
<linearGradient id="paint71_linear" x1="313.651" y1="186.089" x2="309.499" y2="183.742" gradientUnits="userSpaceOnUse">
<stop stop-color="white" stop-opacity="0.63"/>
<stop offset="1" stop-color="white" stop-opacity="0"/>
</linearGradient>
<linearGradient id="paint72_linear" x1="297.124" y1="182.528" x2="316.146" y2="177.928" gradientUnits="userSpaceOnUse">
<stop stop-color="#FFC564"/>
<stop offset="1" stop-color="#FFED9D"/>
</linearGradient>
<linearGradient id="paint73_linear" x1="232.917" y1="240.309" x2="667.306" y2="119.722" gradientUnits="userSpaceOnUse">
<stop stop-color="#BAF7C8"/>
<stop offset="1" stop-color="#4BE0D7"/>
</linearGradient>
</defs>
</svg>
