<svg width="184" height="72" viewBox="0 0 184 72" fill="none" xmlns="http://www.w3.org/2000/svg">
<path d="M51.3206 22.3169C52.5157 22.3169 53.4846 21.3506 53.4846 20.1585C53.4846 18.9664 52.5157 18 51.3206 18C50.1254 18 49.1566 18.9664 49.1566 20.1585C49.1566 21.3506 50.1254 22.3169 51.3206 22.3169Z" fill="#485776"/>
<path d="M53.7551 52.8053C54.9502 52.8053 55.9191 51.8389 55.9191 50.6469C55.9191 49.4548 54.9502 48.4884 53.7551 48.4884C52.5599 48.4884 51.5911 49.4548 51.5911 50.6469C51.5911 51.8389 52.5599 52.8053 53.7551 52.8053Z" fill="#485776"/>
<path d="M51.939 27.7132C52.9421 27.7132 53.7553 26.9021 53.7553 25.9016C53.7553 24.9011 52.9421 24.0901 51.939 24.0901C50.936 24.0901 50.1228 24.9011 50.1228 25.9016C50.1228 26.9021 50.936 27.7132 51.939 27.7132Z" fill="#485776"/>
<path d="M56.7698 28.4068C57.7729 28.4068 58.5861 27.5957 58.5861 26.5952C58.5861 25.5947 57.7729 24.7837 56.7698 24.7837C55.7668 24.7837 54.9536 25.5947 54.9536 26.5952C54.9536 27.5957 55.7668 28.4068 56.7698 28.4068Z" fill="#485776"/>
<path d="M51.3209 32.2997C52.1746 32.2997 52.8666 31.6095 52.8666 30.758C52.8666 29.9065 52.1746 29.2162 51.3209 29.2162C50.4672 29.2162 49.7751 29.9065 49.7751 30.758C49.7751 31.6095 50.4672 32.2997 51.3209 32.2997Z" fill="#485776"/>
<path d="M56.1508 32.9553C57.0045 32.9553 57.6966 32.265 57.6966 31.4135C57.6966 30.5621 57.0045 29.8718 56.1508 29.8718C55.2972 29.8718 54.6051 30.5621 54.6051 31.4135C54.6051 32.265 55.2972 32.9553 56.1508 32.9553Z" fill="#485776"/>
<path d="M60.0154 34.4583C60.8691 34.4583 61.5611 33.7681 61.5611 32.9166C61.5611 32.0651 60.8691 31.3748 60.0154 31.3748C59.1617 31.3748 58.4697 32.0651 58.4697 32.9166C58.4697 33.7681 59.1617 34.4583 60.0154 34.4583Z" fill="#485776"/>
<path d="M54.7212 36.6552C55.4681 36.6552 56.0737 36.0513 56.0737 35.3062C56.0737 34.5612 55.4681 33.9572 54.7212 33.9572C53.9742 33.9572 53.3687 34.5612 53.3687 35.3062C53.3687 36.0513 53.9742 36.6552 54.7212 36.6552Z" fill="#485776"/>
<path d="M49.8911 35.9997C50.6381 35.9997 51.2436 35.3957 51.2436 34.6507C51.2436 33.9056 50.6381 33.3016 49.8911 33.3016C49.1441 33.3016 48.5386 33.9056 48.5386 34.6507C48.5386 35.3957 49.1441 35.9997 49.8911 35.9997Z" fill="#485776"/>
<path d="M58.6241 38.1583C59.3711 38.1583 59.9766 37.5543 59.9766 36.8093C59.9766 36.0642 59.3711 35.4602 58.6241 35.4602C57.8771 35.4602 57.2716 36.0642 57.2716 36.8093C57.2716 37.5543 57.8771 38.1583 58.6241 38.1583Z" fill="#485776"/>
<path d="M52.7894 39.4687C53.4297 39.4687 53.9487 38.951 53.9487 38.3124C53.9487 37.6738 53.4297 37.1561 52.7894 37.1561C52.1492 37.1561 51.6301 37.6738 51.6301 38.3124C51.6301 38.951 52.1492 39.4687 52.7894 39.4687Z" fill="#485776"/>
<path d="M56.6924 40.9335C57.3326 40.9335 57.8517 40.4158 57.8517 39.7772C57.8517 39.1386 57.3326 38.6209 56.6924 38.6209C56.0521 38.6209 55.5331 39.1386 55.5331 39.7772C55.5331 40.4158 56.0521 40.9335 56.6924 40.9335Z" fill="#485776"/>
<path d="M47.9972 38.7747C48.6375 38.7747 49.1565 38.257 49.1565 37.6184C49.1565 36.9798 48.6375 36.4621 47.9972 36.4621C47.3569 36.4621 46.8379 36.9798 46.8379 37.6184C46.8379 38.257 47.3569 38.7747 47.9972 38.7747Z" fill="#485776"/>
<path d="M50.6637 41.3577C51.1972 41.3577 51.6297 40.9263 51.6297 40.3941C51.6297 39.8619 51.1972 39.4305 50.6637 39.4305C50.1301 39.4305 49.6976 39.8619 49.6976 40.3941C49.6976 40.9263 50.1301 41.3577 50.6637 41.3577Z" fill="#485776"/>
<path d="M52.3253 44.0171C52.7948 44.0171 53.1755 43.6374 53.1755 43.1691C53.1755 42.7008 52.7948 42.3212 52.3253 42.3212C51.8558 42.3212 51.4752 42.7008 51.4752 43.1691C51.4752 43.6374 51.8558 44.0171 52.3253 44.0171Z" fill="#485776"/>
<path d="M50.2772 44.5569C50.6614 44.5569 50.9728 44.2463 50.9728 43.8632C50.9728 43.48 50.6614 43.1694 50.2772 43.1694C49.8931 43.1694 49.5817 43.48 49.5817 43.8632C49.5817 44.2463 49.8931 44.5569 50.2772 44.5569Z" fill="#485776"/>
<path d="M48.4609 42.5523C48.9305 42.5523 49.3111 42.1727 49.3111 41.7043C49.3111 41.236 48.9305 40.8564 48.4609 40.8564C47.9914 40.8564 47.6108 41.236 47.6108 41.7043C47.6108 42.1727 47.9914 42.5523 48.4609 42.5523Z" fill="#485776"/>
<path d="M45.8336 40.7024C46.3672 40.7024 46.7997 40.271 46.7997 39.7389C46.7997 39.2067 46.3672 38.7753 45.8336 38.7753C45.3001 38.7753 44.8676 39.2067 44.8676 39.7389C44.8676 40.271 45.3001 40.7024 45.8336 40.7024Z" fill="#485776"/>
<path d="M45.7946 33.4557C46.3281 33.4557 46.7607 33.0242 46.7607 32.4921C46.7607 31.9599 46.3281 31.5285 45.7946 31.5285C45.261 31.5285 44.8285 31.9599 44.8285 32.4921C44.8285 33.0242 45.261 33.4557 45.7946 33.4557Z" fill="#485776"/>
<path d="M46.2197 30.064C46.6892 30.064 47.0698 29.6844 47.0698 29.216C47.0698 28.7477 46.6892 28.3681 46.2197 28.3681C45.7501 28.3681 45.3695 28.7477 45.3695 29.216C45.3695 29.6844 45.7501 30.064 46.2197 30.064Z" fill="#485776"/>
<path d="M47.1473 27.2888C47.5315 27.2888 47.8429 26.9782 47.8429 26.595C47.8429 26.2118 47.5315 25.9012 47.1473 25.9012C46.7631 25.9012 46.4517 26.2118 46.4517 26.595C46.4517 26.9782 46.7631 27.2888 47.1473 27.2888Z" fill="#485776"/>
<path d="M45.5242 25.9786C45.9937 25.9786 46.3744 25.599 46.3744 25.1306C46.3744 24.6623 45.9937 24.2827 45.5242 24.2827C45.0547 24.2827 44.6741 24.6623 44.6741 25.1306C44.6741 25.599 45.0547 25.9786 45.5242 25.9786Z" fill="#485776"/>
<path d="M54.5281 42.8219C55.0616 42.8219 55.4942 42.3905 55.4942 41.8583C55.4942 41.3261 55.0616 40.8947 54.5281 40.8947C53.9945 40.8947 53.562 41.3261 53.562 41.8583C53.562 42.3905 53.9945 42.8219 54.5281 42.8219Z" fill="#485776"/>
<path d="M43.3216 24.8608C43.8551 24.8608 44.2876 24.4294 44.2876 23.8972C44.2876 23.365 43.8551 22.9336 43.3216 22.9336C42.788 22.9336 42.3555 23.365 42.3555 23.8972C42.3555 24.4294 42.788 24.8608 43.3216 24.8608Z" fill="#485776"/>
<path d="M43.9785 28.9466C44.512 28.9466 44.9446 28.5151 44.9446 27.983C44.9446 27.4508 44.512 27.0194 43.9785 27.0194C43.4449 27.0194 43.0124 27.4508 43.0124 27.983C43.0124 28.5151 43.4449 28.9466 43.9785 28.9466Z" fill="#485776"/>
<path d="M42.8968 32.8393C43.537 32.8393 44.0561 32.3216 44.0561 31.683C44.0561 31.0443 43.537 30.5266 42.8968 30.5266C42.2565 30.5266 41.7375 31.0443 41.7375 31.683C41.7375 32.3216 42.2565 32.8393 42.8968 32.8393Z" fill="#485776"/>
<path d="M39.3797 32.839C40.1267 32.839 40.7323 32.235 40.7323 31.49C40.7323 30.7449 40.1267 30.141 39.3797 30.141C38.6328 30.141 38.0272 30.7449 38.0272 31.49C38.0272 32.235 38.6328 32.839 39.3797 32.839Z" fill="#485776"/>
<path d="M35.284 33.7645C36.1377 33.7645 36.8297 33.0742 36.8297 32.2227C36.8297 31.3713 36.1377 30.681 35.284 30.681C34.4303 30.681 33.7383 31.3713 33.7383 32.2227C33.7383 33.0742 34.4303 33.7645 35.284 33.7645Z" fill="#485776"/>
<path d="M30.8013 35.9617C31.8044 35.9617 32.6176 35.1507 32.6176 34.1502C32.6176 33.1497 31.8044 32.3386 30.8013 32.3386C29.7983 32.3386 28.9851 33.1497 28.9851 34.1502C28.9851 35.1507 29.7983 35.9617 30.8013 35.9617Z" fill="#485776"/>
<path d="M26.164 39.6616C27.3592 39.6616 28.328 38.6952 28.328 37.5031C28.328 36.3111 27.3592 35.3447 26.164 35.3447C24.9689 35.3447 24 36.3111 24 37.5031C24 38.6952 24.9689 39.6616 26.164 39.6616Z" fill="#485776"/>
<path d="M28.9854 31.4519C29.9885 31.4519 30.8017 30.6408 30.8017 29.6403C30.8017 28.6399 29.9885 27.8288 28.9854 27.8288C27.9823 27.8288 27.1692 28.6399 27.1692 29.6403C27.1692 30.6408 27.9823 31.4519 28.9854 31.4519Z" fill="#485776"/>
<path d="M33.4675 29.2547C34.3212 29.2547 35.0132 28.5644 35.0132 27.7129C35.0132 26.8614 34.3212 26.1712 33.4675 26.1712C32.6138 26.1712 31.9218 26.8614 31.9218 27.7129C31.9218 28.5644 32.6138 29.2547 33.4675 29.2547Z" fill="#485776"/>
<path d="M32.8104 25.1689C33.6641 25.1689 34.3562 24.4787 34.3562 23.6272C34.3562 22.7757 33.6641 22.0854 32.8104 22.0854C31.9568 22.0854 31.2647 22.7757 31.2647 23.6272C31.2647 24.4787 31.9568 25.1689 32.8104 25.1689Z" fill="#485776"/>
<path d="M36.9069 24.244C37.6539 24.244 38.2594 23.64 38.2594 22.895C38.2594 22.1499 37.6539 21.5459 36.9069 21.5459C36.1599 21.5459 35.5544 22.1499 35.5544 22.895C35.5544 23.64 36.1599 24.244 36.9069 24.244Z" fill="#485776"/>
<path d="M40.4231 24.244C41.0634 24.244 41.5824 23.7263 41.5824 23.0877C41.5824 22.4491 41.0634 21.9314 40.4231 21.9314C39.7828 21.9314 39.2638 22.4491 39.2638 23.0877C39.2638 23.7263 39.7828 24.244 40.4231 24.244Z" fill="#485776"/>
<path d="M41.0803 28.3293C41.7205 28.3293 42.2396 27.8116 42.2396 27.173C42.2396 26.5344 41.7205 26.0167 41.0803 26.0167C40.44 26.0167 39.921 26.5344 39.921 27.173C39.921 27.8116 40.44 28.3293 41.0803 28.3293Z" fill="#485776"/>
<path d="M37.5638 28.3683C38.3108 28.3683 38.9163 27.7644 38.9163 27.0193C38.9163 26.2743 38.3108 25.6703 37.5638 25.6703C36.8168 25.6703 36.2113 26.2743 36.2113 27.0193C36.2113 27.7644 36.8168 28.3683 37.5638 28.3683Z" fill="#485776"/>
<path d="M33.738 38.6208C34.1222 38.6208 34.4336 38.3101 34.4336 37.927C34.4336 37.5438 34.1222 37.2332 33.738 37.2332C33.3538 37.2332 33.0424 37.5438 33.0424 37.927C33.0424 38.3101 33.3538 38.6208 33.738 38.6208Z" fill="#485776"/>
<path d="M36.5204 38.2742C36.99 38.2742 37.3706 37.8945 37.3706 37.4262C37.3706 36.9579 36.99 36.5782 36.5204 36.5782C36.0509 36.5782 35.6703 36.9579 35.6703 37.4262C35.6703 37.8945 36.0509 38.2742 36.5204 38.2742Z" fill="#485776"/>
<path d="M39.573 37.1181C40.1066 37.1181 40.5391 36.6867 40.5391 36.1545C40.5391 35.6223 40.1066 35.1909 39.573 35.1909C39.0395 35.1909 38.6069 35.6223 38.6069 36.1545C38.6069 36.6867 39.0395 37.1181 39.573 37.1181Z" fill="#485776"/>
<path d="M40.3072 40.2012C40.9475 40.2012 41.4665 39.6835 41.4665 39.0449C41.4665 38.4063 40.9475 37.8886 40.3072 37.8886C39.667 37.8886 39.1479 38.4063 39.1479 39.0449C39.1479 39.6835 39.667 40.2012 40.3072 40.2012Z" fill="#485776"/>
<path d="M36.598 40.9333C37.1315 40.9333 37.5641 40.5018 37.5641 39.9697C37.5641 39.4375 37.1315 39.0061 36.598 39.0061C36.0644 39.0061 35.6319 39.4375 35.6319 39.9697C35.6319 40.5018 36.0644 40.9333 36.598 40.9333Z" fill="#485776"/>
<path d="M33.3129 40.8948C33.7824 40.8948 34.163 40.5151 34.163 40.0468C34.163 39.5785 33.7824 39.1988 33.3129 39.1988C32.8433 39.1988 32.4627 39.5785 32.4627 40.0468C32.4627 40.5151 32.8433 40.8948 33.3129 40.8948Z" fill="#485776"/>
<path d="M33.3513 43.5545C33.8849 43.5545 34.3174 43.1231 34.3174 42.5909C34.3174 42.0588 33.8849 41.6273 33.3513 41.6273C32.8178 41.6273 32.3853 42.0588 32.3853 42.5909C32.3853 43.1231 32.8178 43.5545 33.3513 43.5545Z" fill="#485776"/>
<path d="M37.2932 44.0555C37.9334 44.0555 38.4525 43.5378 38.4525 42.8992C38.4525 42.2606 37.9334 41.7429 37.2932 41.7429C36.6529 41.7429 36.1339 42.2606 36.1339 42.8992C36.1339 43.5378 36.6529 44.0555 37.2932 44.0555Z" fill="#485776"/>
<path d="M41.8921 43.5544C42.639 43.5544 43.2446 42.9505 43.2446 42.2054C43.2446 41.4604 42.639 40.8564 41.8921 40.8564C41.1451 40.8564 40.5396 41.4604 40.5396 42.2054C40.5396 42.9505 41.1451 43.5544 41.8921 43.5544Z" fill="#485776"/>
<path d="M44.5965 46.9075C45.4502 46.9075 46.1422 46.2172 46.1422 45.3657C46.1422 44.5142 45.4502 43.824 44.5965 43.824C43.7428 43.824 43.0508 44.5142 43.0508 45.3657C43.0508 46.2172 43.7428 46.9075 44.5965 46.9075Z" fill="#485776"/>
<path d="M38.9164 47.3703C39.6633 47.3703 40.2689 46.7663 40.2689 46.0212C40.2689 45.2762 39.6633 44.6722 38.9164 44.6722C38.1694 44.6722 37.5638 45.2762 37.5638 46.0212C37.5638 46.7663 38.1694 47.3703 38.9164 47.3703Z" fill="#485776"/>
<path d="M35.7088 49.9911C36.4558 49.9911 37.0613 49.3871 37.0613 48.642C37.0613 47.897 36.4558 47.293 35.7088 47.293C34.9618 47.293 34.3563 47.897 34.3563 48.642C34.3563 49.3871 34.9618 49.9911 35.7088 49.9911Z" fill="#485776"/>
<path d="M38.3751 53.3832C39.2288 53.3832 39.9208 52.6929 39.9208 51.8414C39.9208 50.9899 39.2288 50.2997 38.3751 50.2997C37.5214 50.2997 36.8293 50.9899 36.8293 51.8414C36.8293 52.6929 37.5214 53.3832 38.3751 53.3832Z" fill="#485776"/>
<path d="M45.4857 54C46.4887 54 47.3019 53.1889 47.3019 52.1884C47.3019 51.188 46.4887 50.3769 45.4857 50.3769C44.4826 50.3769 43.6694 51.188 43.6694 52.1884C43.6694 53.1889 44.4826 54 45.4857 54Z" fill="#485776"/>
<path d="M41.5826 50.7619C42.4363 50.7619 43.1283 50.0717 43.1283 49.2202C43.1283 48.3687 42.4363 47.6784 41.5826 47.6784C40.7289 47.6784 40.0369 48.3687 40.0369 49.2202C40.0369 50.0717 40.7289 50.7619 41.5826 50.7619Z" fill="#485776"/>
<path d="M48.4614 50.1457C49.4644 50.1457 50.2776 49.3347 50.2776 48.3342C50.2776 47.3337 49.4644 46.5226 48.4614 46.5226C47.4583 46.5226 46.6451 47.3337 46.6451 48.3342C46.6451 49.3347 47.4583 50.1457 48.4614 50.1457Z" fill="#485776"/>
<path d="M34.0857 46.6767C34.726 46.6767 35.245 46.159 35.245 45.5204C35.245 44.8818 34.726 44.3641 34.0857 44.3641C33.4454 44.3641 32.9264 44.8818 32.9264 45.5204C32.9264 46.159 33.4454 46.6767 34.0857 46.6767Z" fill="#485776"/>
<path d="M79.6532 24.4261H77V47.6899H79.6532V24.4261Z" fill="#485776"/>
<path d="M88.194 36.0393C88.194 29.5207 93.6568 24 100.081 24C106.542 24 111.927 29.4795 111.927 36.0393C111.927 42.5991 106.505 48.0786 100.081 48.0786C93.6941 48.116 88.194 42.5991 88.194 36.0393ZM109.274 36.0393C109.274 30.87 105.082 26.4707 100.081 26.4707C95.0803 26.4707 90.8509 30.87 90.8509 36.0393C90.8509 41.2497 95.0803 45.6453 100.081 45.6453C105.082 45.6453 109.274 41.2497 109.274 36.0393Z" fill="#485776"/>
<path d="M125.543 26.9341H117.736V24.4261H135.969V26.9341H128.159V47.6899H125.506L125.543 26.9341Z" fill="#485776"/>
<path d="M149.891 27.6667L141.082 47.6899H138.198L147.853 25.738C148.199 24.9269 149.008 24.4261 149.854 24.4261C150.737 24.4261 151.508 24.9269 151.855 25.738L161.51 47.6899H158.625L149.891 27.6667Z" fill="#485776"/>
</svg>
